<?xml version="1.0" encoding="UTF-8" standalone="no"?>
<svg width="300px" height="300px" viewBox="0 0 32 32" version="1.1" xmlns="http://www.w3.org/2000/svg" xmlns:xlink="http://www.w3.org/1999/xlink">
    <!-- Generator: Sketch 42 (36781) - http://www.bohemiancoding.com/sketch -->
    <title>icon-whatsapp-green</title>
    <desc>Created with Sketch.</desc>
    <defs></defs>
    <g id="Page-1" stroke="none" stroke-width="1" fill="none" fill-rule="evenodd">
        <g id="icon-whatsapp-green" fill="#18F6A0">
            <g id="Page-1" transform="translate(7.000000, 8.000000)">
                <path d="M11.8853,11.166 C11.8083,11.38 11.2333,11.733 10.9533,11.775 C10.7133,11.812 10.3453,11.845 9.9373,11.715 C9.6633,11.628 9.3133,11.512 8.8643,11.318 C7.3693,10.673 6.2693,9.317 5.7023,8.504 C5.5373,8.285 4.9993,7.513 4.9993,6.769 C4.9993,6.061 5.3343,5.703 5.5563,5.465 C5.6313,5.383 5.7043,5.381 5.7133,5.381 C5.8133,5.381 5.9133,5.381 6.0573,5.385 C6.0613,5.395 6.0663,5.405 6.0723,5.418 L6.2943,5.958 C6.4463,6.328 6.6113,6.727 6.6773,6.874 C6.6333,6.963 6.6193,6.988 6.5803,7.034 L6.4693,7.168 C6.4143,7.235 6.3603,7.303 6.3133,7.35 C5.9183,7.741 6.0043,8.114 6.1463,8.357 C6.2993,8.62 6.7203,9.291 7.3403,9.843 C8.0293,10.457 8.6353,10.721 8.9263,10.847 L9.0313,10.895 C9.5663,11.163 9.9053,10.903 10.0573,10.728 C10.1373,10.638 10.4473,10.276 10.6363,10.022 C10.8743,10.126 11.5833,10.472 11.8693,10.615 L11.9863,10.672 C11.9893,10.674 11.9923,10.675 11.9953,10.677 C11.9863,10.789 11.9583,10.961 11.8853,11.166 M12.4213,9.771 L12.3173,9.721 C12.3063,9.716 11.1613,9.146 10.9193,9.058 C10.7513,8.996 10.2453,8.812 9.8893,9.349 C9.7923,9.495 9.5483,9.787 9.3973,9.963 L9.3243,9.93 C9.0623,9.816 8.5743,9.604 8.0053,9.097 C7.5733,8.711 7.2463,8.236 7.0883,7.984 C7.1373,7.929 7.1903,7.865 7.2423,7.802 L7.3393,7.686 C7.4643,7.539 7.5223,7.422 7.6033,7.256 C7.6903,7.082 7.7583,6.804 7.5883,6.465 C7.5493,6.383 7.3773,5.964 7.2193,5.578 L6.9943,5.033 C6.7533,4.451 6.3993,4.409 6.1153,4.389 C5.9933,4.382 5.8533,4.381 5.7133,4.381 C5.5563,4.381 5.1563,4.421 4.7833,4.827 C4.5493,5.078 3.9993,5.666 3.9993,6.769 C3.9993,7.795 4.6323,8.745 4.9263,9.138 C5.5093,9.976 6.7453,11.493 8.4683,12.236 C8.9573,12.447 9.3393,12.575 9.6353,12.668 C9.9273,12.761 10.2283,12.807 10.5493,12.807 C10.7273,12.807 10.9103,12.793 11.1013,12.764 C11.5723,12.693 12.5783,12.198 12.8263,11.502 C12.9503,11.156 13.1043,10.48 12.8993,10.14 C12.7823,9.946 12.5983,9.857 12.4213,9.771" id="Fill-1" fill="#FFFFFF"></path>

                <path d="M8.5,16.0117 C7.153,16.0107 5.833,15.6497 4.681,14.9647 L4.208,14.6867 L1.816,15.3137 L2.454,12.9837 L2.146,12.4937 C1.396,11.3007 0.999,9.9197 1,8.5017 C1.001,4.3657 4.369,0.9997 8.506,0.9997 C10.51,1.0007 12.394,1.7827 13.81,3.1997 C15.226,4.6177 16.006,6.5037 16.005,8.5087 C16.003,12.6457 12.638,16.0117 8.5,16.0117 M14.517,2.4927 C12.912,0.8867 10.777,0.0007 8.506,-0.0003 C3.817,-0.0003 0.001,3.8137 2.48634151e-13,8.5017 C-0.001,10.1087 0.448,11.6727 1.3,13.0277 L1.373,13.1437 L0.394,16.7197 L4.059,15.7587 L4.171,15.8247 C5.476,16.6007 6.973,17.0107 8.502,17.0117 C13.189,17.0117 17.003,13.1977 17.005,8.5087 C17.006,6.2367 16.122,4.1007 14.517,2.4927" id="Fill-3"></path>
            </g>
        </g>
    </g>
</svg>
