<svg width="424" height="182" viewBox="0 0 424 182" fill="none" xmlns="http://www.w3.org/2000/svg">
<rect x="4" y="8" width="412" height="170" fill="#8E8B8B"/>
<rect x="12" width="412" height="170" fill="#606060"/>
<path d="M0 182L12 170V0L0 12V182Z" fill="#C4C4C4"/>
<path d="M12 170L0 182H412L424 170H12Z" fill="#444444"/>
<rect x="16" y="4" width="200" height="162" rx="4" fill="#333333"/>
<path d="M46 132.5L46 91.5L41.5 87L37 91.5L37 132.5L41.5 137L46 132.5Z" fill="#FDC126"/>
<path d="M46 79.5L46 38.5L41.5 34L37 38.5L37 79.5L41.5 84L46 79.5Z" fill="#FDC126"/>
<path d="M88.5 81H47.5L43 85.5L47.5 90H88.5L93 85.5L88.5 81Z" fill="#444444"/>
<path d="M88.5 28H47.5L43 32.5L47.5 37H88.5L93 32.5L88.5 28Z" fill="#FDC126"/>
<path d="M88.5 134H47.5L43 138.5L47.5 143H88.5L93 138.5L88.5 134Z" fill="#FDC126"/>
<path d="M99 132.5L99 91.5L94.5 87L90 91.5L90 132.5L94.5 137L99 132.5Z" fill="#FDC126"/>
<path d="M99 79.5L99 38.5L94.5 34L90 38.5L90 79.5L94.5 84L99 79.5Z" fill="#FDC126"/>
<rect x="98" y="135" width="8" height="8" rx="4" fill="#444444"/>
<path d="M135 132.5L135 91.5L130.5 87L126 91.5L126 132.5L130.5 137L135 132.5Z" fill="#FDC126"/>
<path d="M135 79.5L135 38.5L130.5 34L126 38.5L126 79.5L130.5 84L135 79.5Z" fill="#FDC126"/>
<path d="M177.5 81H136.5L132 85.5L136.5 90H177.5L182 85.5L177.5 81Z" fill="#FDC126"/>
<path d="M177.5 28H136.5L132 32.5L136.5 37H177.5L182 32.5L177.5 28Z" fill="#FDC126"/>
<path d="M177.5 134H136.5L132 138.5L136.5 143H177.5L182 138.5L177.5 134Z" fill="#FDC126"/>
<path d="M188 132.5L188 91.5L183.5 87L179 91.5L179 132.5L183.5 137L188 132.5Z" fill="#FDC126"/>
<path d="M188 79.5L188 38.5L183.5 34L179 38.5L179 79.5L183.5 84L188 79.5Z" fill="#FDC126"/>
<rect x="187" y="135" width="8" height="8" rx="4" fill="#FDC126"/>
<rect x="220" y="4" width="200" height="162" rx="4" fill="#333333"/>
<path d="M250 132.5L250 91.5L245.5 87L241 91.5L241 132.5L245.5 137L250 132.5Z" fill="#FDC126"/>
<path d="M250 79.5L250 38.5L245.5 34L241 38.5L241 79.5L245.5 84L250 79.5Z" fill="#444444"/>
<path d="M292.5 81H251.5L247 85.5L251.5 90H292.5L297 85.5L292.5 81Z" fill="#FDC126"/>
<path d="M292.5 28H251.5L247 32.5L251.5 37H292.5L297 32.5L292.5 28Z" fill="#FDC126"/>
<path d="M292.5 134H251.5L247 138.5L251.5 143H292.5L297 138.5L292.5 134Z" fill="#FDC126"/>
<path d="M303 132.5L303 91.5L298.5 87L294 91.5L294 132.5L298.5 137L303 132.5Z" fill="#444444"/>
<path d="M303 79.5L303 38.5L298.5 34L294 38.5L294 79.5L298.5 84L303 79.5Z" fill="#FDC126"/>
<rect x="302" y="135" width="8" height="8" rx="4" fill="#444444"/>
<path d="M339 132.5L339 91.5L334.5 87L330 91.5L330 132.5L334.5 137L339 132.5Z" fill="#444444"/>
<path d="M339 79.5L339 38.5L334.5 34L330 38.5L330 79.5L334.5 84L339 79.5Z" fill="#FDC126"/>
<path d="M381.5 81H340.5L336 85.5L340.5 90H381.5L386 85.5L381.5 81Z" fill="#FDC126"/>
<path d="M381.5 28H340.5L336 32.5L340.5 37H381.5L386 32.5L381.5 28Z" fill="#FDC126"/>
<path d="M381.5 134H340.5L336 138.5L340.5 143H381.5L386 138.5L381.5 134Z" fill="#444444"/>
<path d="M392 132.5L392 91.5L387.5 87L383 91.5L383 132.5L387.5 137L392 132.5Z" fill="#FDC126"/>
<path d="M392 79.5L392 38.5L387.5 34L383 38.5L383 79.5L387.5 84L392 79.5Z" fill="#FDC126"/>
<rect x="391" y="135" width="8" height="8" rx="4" fill="#444444"/>
</svg>
