<svg width="412" height="170" viewBox="0 0 412 170" fill="none" xmlns="http://www.w3.org/2000/svg">
<rect width="412" height="170" rx="4" fill="#606060"/>
<rect x="4" y="4" width="200" height="162" rx="4" fill="#333333"/>
<path d="M34 132.5L34 91.5L29.5 87L25 91.5L25 132.5L29.5 137L34 132.5Z" fill="#FDC126"/>
<path d="M34 79.5L34 38.5L29.5 34L25 38.5L25 79.5L29.5 84L34 79.5Z" fill="#FDC126"/>
<path d="M76.5 81H35.5L31 85.5L35.5 90H76.5L81 85.5L76.5 81Z" fill="#606060"/>
<path d="M76.5 28H35.5L31 32.5L35.5 37H76.5L81 32.5L76.5 28Z" fill="#FDC126"/>
<path d="M76.5 134H35.5L31 138.5L35.5 143H76.5L81 138.5L76.5 134Z" fill="#FDC126"/>
<path d="M87 132.5L87 91.5L82.5 87L78 91.5L78 132.5L82.5 137L87 132.5Z" fill="#606060"/>
<path d="M87 79.5L87 38.5L82.5 34L78 38.5L78 79.5L82.5 84L87 79.5Z" fill="#606060"/>
<rect x="86" y="135" width="8" height="8" rx="4" fill="#606060"/>
<path d="M123 132.5L123 91.5L118.5 87L114 91.5L114 132.5L118.5 137L123 132.5Z" fill="#FDC126"/>
<path d="M123 79.5L123 38.5L118.5 34L114 38.5L114 79.5L118.5 84L123 79.5Z" fill="#606060"/>
<path d="M165.5 81H124.5L120 85.5L124.5 90H165.5L170 85.5L165.5 81Z" fill="#FDC126"/>
<path d="M165.5 28H124.5L120 32.5L124.5 37H165.5L170 32.5L165.5 28Z" fill="#FDC126"/>
<path d="M165.5 134H124.5L120 138.5L124.5 143H165.5L170 138.5L165.5 134Z" fill="#FDC126"/>
<path d="M176 132.5L176 91.5L171.5 87L167 91.5L167 132.5L171.5 137L176 132.5Z" fill="#606060"/>
<path d="M176 79.5L176 38.5L171.5 34L167 38.5L167 79.5L171.5 84L176 79.5Z" fill="#FDC126"/>
<rect x="175" y="135" width="8" height="8" rx="4" fill="#FDC126"/>
<rect x="208" y="4" width="200" height="162" rx="4" fill="#333333"/>
<path d="M238 132.5L238 91.5L233.5 87L229 91.5L229 132.5L233.5 137L238 132.5Z" fill="#FDC126"/>
<path d="M238 79.5L238 38.5L233.5 34L229 38.5L229 79.5L233.5 84L238 79.5Z" fill="#606060"/>
<path d="M280.5 81H239.5L235 85.5L239.5 90H280.5L285 85.5L280.5 81Z" fill="#FDC126"/>
<path d="M280.5 28H239.5L235 32.5L239.5 37H280.5L285 32.5L280.5 28Z" fill="#FDC126"/>
<path d="M280.5 134H239.5L235 138.5L239.5 143H280.5L285 138.5L280.5 134Z" fill="#FDC126"/>
<path d="M291 132.5L291 91.5L286.5 87L282 91.5L282 132.5L286.5 137L291 132.5Z" fill="#606060"/>
<path d="M291 79.5L291 38.5L286.5 34L282 38.5L282 79.5L286.5 84L291 79.5Z" fill="#FDC126"/>
<rect x="290" y="135" width="8" height="8" rx="4" fill="#606060"/>
<path d="M327 132.5L327 91.5L322.5 87L318 91.5L318 132.5L322.5 137L327 132.5Z" fill="#606060"/>
<path d="M327 79.5L327 38.5L322.5 34L318 38.5L318 79.5L322.5 84L327 79.5Z" fill="#FDC126"/>
<path d="M369.5 81H328.5L324 85.5L328.5 90H369.5L374 85.5L369.5 81Z" fill="#FDC126"/>
<path d="M369.5 28H328.5L324 32.5L328.5 37H369.5L374 32.5L369.5 28Z" fill="#FDC126"/>
<path d="M369.5 134H328.5L324 138.5L328.5 143H369.5L374 138.5L369.5 134Z" fill="#606060"/>
<path d="M380 132.5L380 91.5L375.5 87L371 91.5L371 132.5L375.5 137L380 132.5Z" fill="#FDC126"/>
<path d="M380 79.5L380 38.5L375.5 34L371 38.5L371 79.5L375.5 84L380 79.5Z" fill="#FDC126"/>
<rect x="379" y="135" width="8" height="8" rx="4" fill="#606060"/>
</svg>
