<svg width="1200" height="600" viewBox="0 0 1200 600" fill="none" xmlns="http://www.w3.org/2000/svg">
<rect width="1200" height="600" fill="white"/>
<mask id="mask0" mask-type="alpha" maskUnits="userSpaceOnUse" x="0" y="0" width="1200" height="600">
<rect width="1200" height="600" fill="#1B1C1E"/>
</mask>
<g mask="url(#mask0)">
<rect width="1200" height="600" fill="#1B1C1E"/>
</g>
<path d="M88.5147 129.515L97 138L88.5147 146.485V129.515Z" fill="white"/>
<rect x="110" y="115" width="206" height="46" rx="7" stroke="url(#paint0_linear)" stroke-width="2"/>
<rect x="113" y="118" width="200" height="40" rx="4" fill="url(#paint1_linear)"/>
<rect opacity="0.1" x="333" y="134" width="243" height="8" rx="4" fill="white"/>
<rect x="596" y="124" width="48" height="28" rx="14" fill="#4AAEE7"/>
<g filter="url(#filter0_d)">
<rect x="618" y="126" width="24" height="24" rx="12" fill="white"/>
</g>
<g filter="url(#filter1_d)">
<rect x="429" y="126" width="24" height="24" rx="12" fill="white"/>
</g>
<path d="M129.84 143V134.36H133.266C133.85 134.36 134.328 134.478 134.7 134.714C135.076 134.946 135.354 135.244 135.534 135.608C135.718 135.972 135.81 136.348 135.81 136.736C135.81 137.212 135.696 137.616 135.468 137.948C135.244 138.28 134.938 138.504 134.55 138.62V138.32C135.094 138.444 135.506 138.702 135.786 139.094C136.07 139.486 136.212 139.932 136.212 140.432C136.212 140.944 136.114 141.392 135.918 141.776C135.722 142.16 135.43 142.46 135.042 142.676C134.658 142.892 134.182 143 133.614 143H129.84ZM131.304 141.638H133.434C133.686 141.638 133.912 141.588 134.112 141.488C134.312 141.384 134.468 141.24 134.58 141.056C134.696 140.868 134.754 140.646 134.754 140.39C134.754 140.158 134.704 139.95 134.604 139.766C134.504 139.582 134.358 139.436 134.166 139.328C133.974 139.216 133.744 139.16 133.476 139.16H131.304V141.638ZM131.304 137.81H133.248C133.456 137.81 133.642 137.77 133.806 137.69C133.97 137.61 134.1 137.492 134.196 137.336C134.292 137.18 134.34 136.988 134.34 136.76C134.34 136.46 134.244 136.21 134.052 136.01C133.86 135.81 133.592 135.71 133.248 135.71H131.304V137.81ZM140.356 143.18C139.7 143.18 139.124 143.038 138.628 142.754C138.132 142.47 137.744 142.076 137.464 141.572C137.188 141.068 137.05 140.488 137.05 139.832C137.05 139.124 137.186 138.51 137.458 137.99C137.73 137.466 138.108 137.06 138.592 136.772C139.076 136.484 139.636 136.34 140.272 136.34C140.944 136.34 141.514 136.498 141.982 136.814C142.454 137.126 142.804 137.568 143.032 138.14C143.26 138.712 143.346 139.386 143.29 140.162H141.856V139.634C141.852 138.93 141.728 138.416 141.484 138.092C141.24 137.768 140.856 137.606 140.332 137.606C139.74 137.606 139.3 137.79 139.012 138.158C138.724 138.522 138.58 139.056 138.58 139.76C138.58 140.416 138.724 140.924 139.012 141.284C139.3 141.644 139.72 141.824 140.272 141.824C140.628 141.824 140.934 141.746 141.19 141.59C141.45 141.43 141.65 141.2 141.79 140.9L143.218 141.332C142.97 141.916 142.586 142.37 142.066 142.694C141.55 143.018 140.98 143.18 140.356 143.18ZM138.124 140.162V139.07H142.582V140.162H138.124ZM147.227 143.18C146.631 143.18 146.111 143.03 145.667 142.73C145.223 142.43 144.879 142.022 144.635 141.506C144.391 140.99 144.269 140.408 144.269 139.76C144.269 139.104 144.391 138.52 144.635 138.008C144.883 137.492 145.233 137.086 145.685 136.79C146.137 136.49 146.669 136.34 147.281 136.34C147.897 136.34 148.413 136.49 148.829 136.79C149.249 137.086 149.567 137.492 149.783 138.008C149.999 138.524 150.107 139.108 150.107 139.76C150.107 140.404 149.999 140.986 149.783 141.506C149.567 142.022 149.245 142.43 148.817 142.73C148.389 143.03 147.859 143.18 147.227 143.18ZM147.449 141.884C147.837 141.884 148.149 141.796 148.385 141.62C148.625 141.44 148.799 141.19 148.907 140.87C149.019 140.55 149.075 140.18 149.075 139.76C149.075 139.336 149.019 138.966 148.907 138.65C148.799 138.33 148.629 138.082 148.397 137.906C148.165 137.726 147.865 137.636 147.497 137.636C147.109 137.636 146.789 137.732 146.537 137.924C146.285 138.112 146.099 138.368 145.979 138.692C145.859 139.012 145.799 139.368 145.799 139.76C145.799 140.156 145.857 140.516 145.973 140.84C146.093 141.16 146.275 141.414 146.519 141.602C146.763 141.79 147.073 141.884 147.449 141.884ZM149.075 143V138.452H148.895V134.36H150.353V143H149.075ZM152.035 143V136.52H153.313V138.098L153.157 137.894C153.237 137.678 153.343 137.482 153.475 137.306C153.611 137.126 153.773 136.978 153.961 136.862C154.121 136.754 154.297 136.67 154.489 136.61C154.685 136.546 154.885 136.508 155.089 136.496C155.293 136.48 155.491 136.488 155.683 136.52V137.87C155.491 137.814 155.269 137.796 155.017 137.816C154.769 137.836 154.545 137.906 154.345 138.026C154.145 138.134 153.981 138.272 153.853 138.44C153.729 138.608 153.637 138.8 153.577 139.016C153.517 139.228 153.487 139.458 153.487 139.706V143H152.035ZM159.573 143.18C158.925 143.18 158.359 143.034 157.875 142.742C157.391 142.45 157.015 142.048 156.747 141.536C156.483 141.02 156.351 140.428 156.351 139.76C156.351 139.08 156.487 138.484 156.759 137.972C157.031 137.46 157.409 137.06 157.893 136.772C158.377 136.484 158.937 136.34 159.573 136.34C160.225 136.34 160.793 136.486 161.277 136.778C161.761 137.07 162.137 137.474 162.405 137.99C162.673 138.502 162.807 139.092 162.807 139.76C162.807 140.432 162.671 141.026 162.399 141.542C162.131 142.054 161.755 142.456 161.271 142.748C160.787 143.036 160.221 143.18 159.573 143.18ZM159.573 141.824C160.149 141.824 160.577 141.632 160.857 141.248C161.137 140.864 161.277 140.368 161.277 139.76C161.277 139.132 161.135 138.632 160.851 138.26C160.567 137.884 160.141 137.696 159.573 137.696C159.185 137.696 158.865 137.784 158.613 137.96C158.365 138.132 158.181 138.374 158.061 138.686C157.941 138.994 157.881 139.352 157.881 139.76C157.881 140.388 158.023 140.89 158.307 141.266C158.595 141.638 159.017 141.824 159.573 141.824ZM166.991 143.18C166.343 143.18 165.777 143.034 165.293 142.742C164.809 142.45 164.433 142.048 164.165 141.536C163.901 141.02 163.769 140.428 163.769 139.76C163.769 139.08 163.905 138.484 164.177 137.972C164.449 137.46 164.827 137.06 165.311 136.772C165.795 136.484 166.355 136.34 166.991 136.34C167.643 136.34 168.211 136.486 168.695 136.778C169.179 137.07 169.555 137.474 169.823 137.99C170.091 138.502 170.225 139.092 170.225 139.76C170.225 140.432 170.089 141.026 169.817 141.542C169.549 142.054 169.173 142.456 168.689 142.748C168.205 143.036 167.639 143.18 166.991 143.18ZM166.991 141.824C167.567 141.824 167.995 141.632 168.275 141.248C168.555 140.864 168.695 140.368 168.695 139.76C168.695 139.132 168.553 138.632 168.269 138.26C167.985 137.884 167.559 137.696 166.991 137.696C166.603 137.696 166.283 137.784 166.031 137.96C165.783 138.132 165.599 138.374 165.479 138.686C165.359 138.994 165.299 139.352 165.299 139.76C165.299 140.388 165.441 140.89 165.725 141.266C166.013 141.638 166.435 141.824 166.991 141.824ZM179.329 143V139.064C179.329 138.62 179.219 138.274 178.999 138.026C178.779 137.774 178.481 137.648 178.105 137.648C177.873 137.648 177.665 137.702 177.481 137.81C177.297 137.914 177.151 138.07 177.043 138.278C176.935 138.482 176.881 138.726 176.881 139.01L176.239 138.632C176.235 138.184 176.335 137.79 176.539 137.45C176.747 137.106 177.027 136.838 177.379 136.646C177.731 136.454 178.123 136.358 178.555 136.358C179.271 136.358 179.819 136.574 180.199 137.006C180.583 137.434 180.775 137.998 180.775 138.698V143H179.329ZM171.535 143V136.52H172.813V138.53H172.993V143H171.535ZM175.441 143V139.082C175.441 138.63 175.331 138.278 175.111 138.026C174.891 137.774 174.591 137.648 174.211 137.648C173.843 137.648 173.547 137.774 173.323 138.026C173.103 138.278 172.993 138.606 172.993 139.01L172.345 138.578C172.345 138.158 172.449 137.78 172.657 137.444C172.865 137.108 173.145 136.844 173.497 136.652C173.853 136.456 174.251 136.358 174.691 136.358C175.175 136.358 175.579 136.462 175.903 136.67C176.231 136.874 176.475 137.154 176.635 137.51C176.799 137.862 176.881 138.26 176.881 138.704V143H175.441Z" fill="white"/>
<path d="M88.5147 218.515L97 227L88.5147 235.485V218.515Z" fill="white"/>
<rect x="113" y="207" width="200" height="40" rx="4" fill="url(#paint2_linear)"/>
<rect opacity="0.1" x="333" y="223" width="243" height="8" rx="4" fill="white"/>
<rect x="596" y="213" width="48" height="28" rx="14" fill="#4AAEE7"/>
<g filter="url(#filter2_d)">
<rect x="618" y="215" width="24" height="24" rx="12" fill="white"/>
</g>
<g filter="url(#filter3_d)">
<rect x="389" y="215" width="24" height="24" rx="12" fill="white"/>
</g>
<path d="M129.96 232V223.36H131.406V230.644H135.222V232H129.96ZM136.358 224.536V223.21H137.804V224.536H136.358ZM136.358 232V225.52H137.804V232H136.358ZM141.354 232L139.002 225.52H140.448L142.08 230.218L143.706 225.52H145.158L142.806 232H141.354ZM146.355 224.536V223.21H147.801V224.536H146.355ZM146.355 232V225.52H147.801V232H146.355ZM154.08 232V228.88C154.08 228.676 154.066 228.45 154.038 228.202C154.01 227.954 153.944 227.716 153.84 227.488C153.74 227.256 153.588 227.066 153.384 226.918C153.184 226.77 152.912 226.696 152.568 226.696C152.384 226.696 152.202 226.726 152.022 226.786C151.842 226.846 151.678 226.95 151.53 227.098C151.386 227.242 151.27 227.442 151.182 227.698C151.094 227.95 151.05 228.274 151.05 228.67L150.192 228.304C150.192 227.752 150.298 227.252 150.51 226.804C150.726 226.356 151.042 226 151.458 225.736C151.874 225.468 152.386 225.334 152.994 225.334C153.474 225.334 153.87 225.414 154.182 225.574C154.494 225.734 154.742 225.938 154.926 226.186C155.11 226.434 155.246 226.698 155.334 226.978C155.422 227.258 155.478 227.524 155.502 227.776C155.53 228.024 155.544 228.226 155.544 228.382V232H154.08ZM149.586 232V225.52H150.876V227.53H151.05V232H149.586ZM159.834 235.06C159.474 235.06 159.128 235.004 158.796 234.892C158.468 234.78 158.172 234.618 157.908 234.406C157.644 234.198 157.428 233.946 157.26 233.65L158.592 232.99C158.716 233.226 158.89 233.4 159.114 233.512C159.342 233.628 159.584 233.686 159.84 233.686C160.14 233.686 160.408 233.632 160.644 233.524C160.88 233.42 161.062 233.264 161.19 233.056C161.322 232.852 161.384 232.596 161.376 232.288V230.446H161.556V225.52H162.822V232.312C162.822 232.476 162.814 232.632 162.798 232.78C162.786 232.932 162.764 233.08 162.732 233.224C162.636 233.644 162.452 233.988 162.18 234.256C161.908 234.528 161.57 234.73 161.166 234.862C160.766 234.994 160.322 235.06 159.834 235.06ZM159.708 232.18C159.112 232.18 158.592 232.03 158.148 231.73C157.704 231.43 157.36 231.022 157.116 230.506C156.872 229.99 156.75 229.408 156.75 228.76C156.75 228.104 156.872 227.52 157.116 227.008C157.364 226.492 157.714 226.086 158.166 225.79C158.618 225.49 159.15 225.34 159.762 225.34C160.378 225.34 160.894 225.49 161.31 225.79C161.73 226.086 162.048 226.492 162.264 227.008C162.48 227.524 162.588 228.108 162.588 228.76C162.588 229.404 162.48 229.986 162.264 230.506C162.048 231.022 161.726 231.43 161.298 231.73C160.87 232.03 160.34 232.18 159.708 232.18ZM159.93 230.884C160.318 230.884 160.63 230.796 160.866 230.62C161.106 230.44 161.28 230.19 161.388 229.87C161.5 229.55 161.556 229.18 161.556 228.76C161.556 228.336 161.5 227.966 161.388 227.65C161.28 227.33 161.11 227.082 160.878 226.906C160.646 226.726 160.346 226.636 159.978 226.636C159.59 226.636 159.27 226.732 159.018 226.924C158.766 227.112 158.58 227.368 158.46 227.692C158.34 228.012 158.28 228.368 158.28 228.76C158.28 229.156 158.338 229.516 158.454 229.84C158.574 230.16 158.756 230.414 159 230.602C159.244 230.79 159.554 230.884 159.93 230.884ZM166.906 232V223.36H170.476C170.56 223.36 170.668 223.364 170.8 223.372C170.932 223.376 171.054 223.388 171.166 223.408C171.666 223.484 172.078 223.65 172.402 223.906C172.73 224.162 172.972 224.486 173.128 224.878C173.288 225.266 173.368 225.698 173.368 226.174C173.368 226.878 173.19 227.484 172.834 227.992C172.478 228.496 171.932 228.808 171.196 228.928L170.578 228.982H168.352V232H166.906ZM171.868 232L170.164 228.484L171.634 228.16L173.506 232H171.868ZM168.352 227.632H170.416C170.496 227.632 170.586 227.628 170.686 227.62C170.786 227.612 170.878 227.596 170.962 227.572C171.202 227.512 171.39 227.406 171.526 227.254C171.666 227.102 171.764 226.93 171.82 226.738C171.88 226.546 171.91 226.358 171.91 226.174C171.91 225.99 171.88 225.802 171.82 225.61C171.764 225.414 171.666 225.24 171.526 225.088C171.39 224.936 171.202 224.83 170.962 224.77C170.878 224.746 170.786 224.732 170.686 224.728C170.586 224.72 170.496 224.716 170.416 224.716H168.352V227.632ZM177.69 232.18C177.042 232.18 176.476 232.034 175.992 231.742C175.508 231.45 175.132 231.048 174.864 230.536C174.6 230.02 174.468 229.428 174.468 228.76C174.468 228.08 174.604 227.484 174.876 226.972C175.148 226.46 175.526 226.06 176.01 225.772C176.494 225.484 177.054 225.34 177.69 225.34C178.342 225.34 178.91 225.486 179.394 225.778C179.878 226.07 180.254 226.474 180.522 226.99C180.79 227.502 180.924 228.092 180.924 228.76C180.924 229.432 180.788 230.026 180.516 230.542C180.248 231.054 179.872 231.456 179.388 231.748C178.904 232.036 178.338 232.18 177.69 232.18ZM177.69 230.824C178.266 230.824 178.694 230.632 178.974 230.248C179.254 229.864 179.394 229.368 179.394 228.76C179.394 228.132 179.252 227.632 178.968 227.26C178.684 226.884 178.258 226.696 177.69 226.696C177.302 226.696 176.982 226.784 176.73 226.96C176.482 227.132 176.298 227.374 176.178 227.686C176.058 227.994 175.998 228.352 175.998 228.76C175.998 229.388 176.14 229.89 176.424 230.266C176.712 230.638 177.134 230.824 177.69 230.824ZM185.108 232.18C184.46 232.18 183.894 232.034 183.41 231.742C182.926 231.45 182.55 231.048 182.282 230.536C182.018 230.02 181.886 229.428 181.886 228.76C181.886 228.08 182.022 227.484 182.294 226.972C182.566 226.46 182.944 226.06 183.428 225.772C183.912 225.484 184.472 225.34 185.108 225.34C185.76 225.34 186.328 225.486 186.812 225.778C187.296 226.07 187.672 226.474 187.94 226.99C188.208 227.502 188.342 228.092 188.342 228.76C188.342 229.432 188.206 230.026 187.934 230.542C187.666 231.054 187.29 231.456 186.806 231.748C186.322 232.036 185.756 232.18 185.108 232.18ZM185.108 230.824C185.684 230.824 186.112 230.632 186.392 230.248C186.672 229.864 186.812 229.368 186.812 228.76C186.812 228.132 186.67 227.632 186.386 227.26C186.102 226.884 185.676 226.696 185.108 226.696C184.72 226.696 184.4 226.784 184.148 226.96C183.9 227.132 183.716 227.374 183.596 227.686C183.476 227.994 183.416 228.352 183.416 228.76C183.416 229.388 183.558 229.89 183.842 230.266C184.13 230.638 184.552 230.824 185.108 230.824ZM197.446 232V228.064C197.446 227.62 197.336 227.274 197.116 227.026C196.896 226.774 196.598 226.648 196.222 226.648C195.99 226.648 195.782 226.702 195.598 226.81C195.414 226.914 195.268 227.07 195.16 227.278C195.052 227.482 194.998 227.726 194.998 228.01L194.356 227.632C194.352 227.184 194.452 226.79 194.656 226.45C194.864 226.106 195.144 225.838 195.496 225.646C195.848 225.454 196.24 225.358 196.672 225.358C197.388 225.358 197.936 225.574 198.316 226.006C198.7 226.434 198.892 226.998 198.892 227.698V232H197.446ZM189.652 232V225.52H190.93V227.53H191.11V232H189.652ZM193.558 232V228.082C193.558 227.63 193.448 227.278 193.228 227.026C193.008 226.774 192.708 226.648 192.328 226.648C191.96 226.648 191.664 226.774 191.44 227.026C191.22 227.278 191.11 227.606 191.11 228.01L190.462 227.578C190.462 227.158 190.566 226.78 190.774 226.444C190.982 226.108 191.262 225.844 191.614 225.652C191.97 225.456 192.368 225.358 192.808 225.358C193.292 225.358 193.696 225.462 194.02 225.67C194.348 225.874 194.592 226.154 194.752 226.51C194.916 226.862 194.998 227.26 194.998 227.704V232H193.558Z" fill="white"/>
<path d="M88.5147 307.515L97 316L88.5147 324.485V307.515Z" fill="white"/>
<rect x="113" y="296" width="200" height="40" rx="4" fill="url(#paint3_linear)"/>
<rect opacity="0.1" x="333" y="312" width="243" height="8" rx="4" fill="white"/>
<rect x="596" y="302" width="48" height="28" rx="14" fill="#4AAEE7"/>
<g filter="url(#filter4_d)">
<rect x="618" y="304" width="24" height="24" rx="12" fill="white"/>
</g>
<g filter="url(#filter5_d)">
<rect x="461" y="304" width="24" height="24" rx="12" fill="white"/>
</g>
<path d="M129.84 321V312.36H131.286V316.368L134.736 312.36H136.512L132.798 316.596L136.764 321H134.928L131.286 316.968V321H129.84ZM137.73 313.536V312.21H139.176V313.536H137.73ZM137.73 321V314.52H139.176V321H137.73ZM144.771 321C144.343 321.08 143.923 321.114 143.511 321.102C143.103 321.094 142.737 321.02 142.413 320.88C142.089 320.736 141.843 320.51 141.675 320.202C141.527 319.922 141.449 319.636 141.441 319.344C141.433 319.052 141.429 318.722 141.429 318.354V312.72H142.869V318.27C142.869 318.53 142.871 318.758 142.875 318.954C142.883 319.15 142.925 319.31 143.001 319.434C143.145 319.674 143.375 319.808 143.691 319.836C144.007 319.864 144.367 319.848 144.771 319.788V321ZM140.253 315.654V314.52H144.771V315.654H140.253ZM148.65 321.18C147.982 321.18 147.412 321.032 146.94 320.736C146.468 320.436 146.106 320.028 145.854 319.512C145.606 318.996 145.48 318.412 145.476 317.76C145.48 317.096 145.61 316.508 145.866 315.996C146.126 315.48 146.494 315.076 146.97 314.784C147.446 314.488 148.012 314.34 148.668 314.34C149.404 314.34 150.026 314.526 150.534 314.898C151.046 315.266 151.38 315.77 151.536 316.41L150.096 316.8C149.984 316.452 149.798 316.182 149.538 315.99C149.278 315.794 148.982 315.696 148.65 315.696C148.274 315.696 147.964 315.786 147.72 315.966C147.476 316.142 147.296 316.386 147.18 316.698C147.064 317.01 147.006 317.364 147.006 317.76C147.006 318.376 147.144 318.874 147.42 319.254C147.696 319.634 148.106 319.824 148.65 319.824C149.034 319.824 149.336 319.736 149.556 319.56C149.78 319.384 149.948 319.13 150.06 318.798L151.536 319.128C151.336 319.788 150.986 320.296 150.486 320.652C149.986 321.004 149.374 321.18 148.65 321.18ZM157.22 321V317.88C157.22 317.676 157.206 317.45 157.178 317.202C157.15 316.954 157.084 316.716 156.98 316.488C156.88 316.256 156.728 316.066 156.524 315.918C156.324 315.77 156.052 315.696 155.708 315.696C155.524 315.696 155.342 315.726 155.162 315.786C154.982 315.846 154.818 315.95 154.67 316.098C154.526 316.242 154.41 316.442 154.322 316.698C154.234 316.95 154.19 317.274 154.19 317.67L153.332 317.304C153.332 316.752 153.438 316.252 153.65 315.804C153.866 315.356 154.182 315 154.598 314.736C155.014 314.468 155.526 314.334 156.134 314.334C156.614 314.334 157.01 314.414 157.322 314.574C157.634 314.734 157.882 314.938 158.066 315.186C158.25 315.434 158.386 315.698 158.474 315.978C158.562 316.258 158.618 316.524 158.642 316.776C158.67 317.024 158.684 317.226 158.684 317.382V321H157.22ZM152.726 321V312.36H154.016V316.908H154.19V321H152.726ZM163.196 321.18C162.54 321.18 161.964 321.038 161.468 320.754C160.972 320.47 160.584 320.076 160.304 319.572C160.028 319.068 159.89 318.488 159.89 317.832C159.89 317.124 160.026 316.51 160.298 315.99C160.57 315.466 160.948 315.06 161.432 314.772C161.916 314.484 162.476 314.34 163.112 314.34C163.784 314.34 164.354 314.498 164.822 314.814C165.294 315.126 165.644 315.568 165.872 316.14C166.1 316.712 166.186 317.386 166.13 318.162H164.696V317.634C164.692 316.93 164.568 316.416 164.324 316.092C164.08 315.768 163.696 315.606 163.172 315.606C162.58 315.606 162.14 315.79 161.852 316.158C161.564 316.522 161.42 317.056 161.42 317.76C161.42 318.416 161.564 318.924 161.852 319.284C162.14 319.644 162.56 319.824 163.112 319.824C163.468 319.824 163.774 319.746 164.03 319.59C164.29 319.43 164.49 319.2 164.63 318.9L166.058 319.332C165.81 319.916 165.426 320.37 164.906 320.694C164.39 321.018 163.82 321.18 163.196 321.18ZM160.964 318.162V317.07H165.422V318.162H160.964ZM171.775 321V317.88C171.775 317.676 171.761 317.45 171.733 317.202C171.705 316.954 171.639 316.716 171.535 316.488C171.435 316.256 171.283 316.066 171.079 315.918C170.879 315.77 170.607 315.696 170.263 315.696C170.079 315.696 169.897 315.726 169.717 315.786C169.537 315.846 169.373 315.95 169.225 316.098C169.081 316.242 168.965 316.442 168.877 316.698C168.789 316.95 168.745 317.274 168.745 317.67L167.887 317.304C167.887 316.752 167.993 316.252 168.205 315.804C168.421 315.356 168.737 315 169.153 314.736C169.569 314.468 170.081 314.334 170.689 314.334C171.169 314.334 171.565 314.414 171.877 314.574C172.189 314.734 172.437 314.938 172.621 315.186C172.805 315.434 172.941 315.698 173.029 315.978C173.117 316.258 173.173 316.524 173.197 316.776C173.225 317.024 173.239 317.226 173.239 317.382V321H171.775ZM167.281 321V314.52H168.571V316.53H168.745V321H167.281Z" fill="white"/>
<path d="M88.5147 485.515L97 494L88.5147 502.485V485.515Z" fill="white"/>
<rect x="113" y="474" width="200" height="40" rx="4" fill="url(#paint4_linear)"/>
<rect opacity="0.1" x="333" y="490" width="243" height="8" rx="4" fill="white"/>
<rect x="596" y="480" width="48" height="28" rx="14" fill="#4AAEE7"/>
<g filter="url(#filter6_d)">
<rect x="618" y="482" width="24" height="24" rx="12" fill="white"/>
</g>
<g filter="url(#filter7_d)">
<rect x="373" y="482" width="24" height="24" rx="12" fill="white"/>
</g>
<path d="M129.84 499V490.36H131.286V493.996H135.378V490.36H136.818V499H135.378V495.352H131.286V499H129.84ZM140.312 499.18C139.844 499.18 139.448 499.092 139.124 498.916C138.8 498.736 138.554 498.498 138.386 498.202C138.222 497.906 138.14 497.58 138.14 497.224C138.14 496.912 138.192 496.632 138.296 496.384C138.4 496.132 138.56 495.916 138.776 495.736C138.992 495.552 139.272 495.402 139.616 495.286C139.876 495.202 140.18 495.126 140.528 495.058C140.88 494.99 141.26 494.928 141.668 494.872C142.08 494.812 142.51 494.748 142.958 494.68L142.442 494.974C142.446 494.526 142.346 494.196 142.142 493.984C141.938 493.772 141.594 493.666 141.11 493.666C140.818 493.666 140.536 493.734 140.264 493.87C139.992 494.006 139.802 494.24 139.694 494.572L138.374 494.158C138.534 493.61 138.838 493.17 139.286 492.838C139.738 492.506 140.346 492.34 141.11 492.34C141.686 492.34 142.192 492.434 142.628 492.622C143.068 492.81 143.394 493.118 143.606 493.546C143.722 493.774 143.792 494.008 143.816 494.248C143.84 494.484 143.852 494.742 143.852 495.022V499H142.586V497.596L142.796 497.824C142.504 498.292 142.162 498.636 141.77 498.856C141.382 499.072 140.896 499.18 140.312 499.18ZM140.6 498.028C140.928 498.028 141.208 497.97 141.44 497.854C141.672 497.738 141.856 497.596 141.992 497.428C142.132 497.26 142.226 497.102 142.274 496.954C142.35 496.77 142.392 496.56 142.4 496.324C142.412 496.084 142.418 495.89 142.418 495.742L142.862 495.874C142.426 495.942 142.052 496.002 141.74 496.054C141.428 496.106 141.16 496.156 140.936 496.204C140.712 496.248 140.514 496.298 140.342 496.354C140.174 496.414 140.032 496.484 139.916 496.564C139.8 496.644 139.71 496.736 139.646 496.84C139.586 496.944 139.556 497.066 139.556 497.206C139.556 497.366 139.596 497.508 139.676 497.632C139.756 497.752 139.872 497.848 140.024 497.92C140.18 497.992 140.372 498.028 140.6 498.028ZM145.534 499V490.18H146.98V499H145.534ZM148.898 499V490.18H150.344V499H148.898ZM153.521 499L151.541 492.508L152.957 492.52L154.223 496.678L155.507 492.52H156.725L158.003 496.678L159.275 492.52H160.691L158.711 499H157.583L156.113 494.542L154.649 499H153.521ZM163.222 499.18C162.754 499.18 162.358 499.092 162.034 498.916C161.71 498.736 161.464 498.498 161.296 498.202C161.132 497.906 161.05 497.58 161.05 497.224C161.05 496.912 161.102 496.632 161.206 496.384C161.31 496.132 161.47 495.916 161.686 495.736C161.902 495.552 162.182 495.402 162.526 495.286C162.786 495.202 163.09 495.126 163.438 495.058C163.79 494.99 164.17 494.928 164.578 494.872C164.99 494.812 165.42 494.748 165.868 494.68L165.352 494.974C165.356 494.526 165.256 494.196 165.052 493.984C164.848 493.772 164.504 493.666 164.02 493.666C163.728 493.666 163.446 493.734 163.174 493.87C162.902 494.006 162.712 494.24 162.604 494.572L161.284 494.158C161.444 493.61 161.748 493.17 162.196 492.838C162.648 492.506 163.256 492.34 164.02 492.34C164.596 492.34 165.102 492.434 165.538 492.622C165.978 492.81 166.304 493.118 166.516 493.546C166.632 493.774 166.702 494.008 166.726 494.248C166.75 494.484 166.762 494.742 166.762 495.022V499H165.496V497.596L165.706 497.824C165.414 498.292 165.072 498.636 164.68 498.856C164.292 499.072 163.806 499.18 163.222 499.18ZM163.51 498.028C163.838 498.028 164.118 497.97 164.35 497.854C164.582 497.738 164.766 497.596 164.902 497.428C165.042 497.26 165.136 497.102 165.184 496.954C165.26 496.77 165.302 496.56 165.31 496.324C165.322 496.084 165.328 495.89 165.328 495.742L165.772 495.874C165.336 495.942 164.962 496.002 164.65 496.054C164.338 496.106 164.07 496.156 163.846 496.204C163.622 496.248 163.424 496.298 163.252 496.354C163.084 496.414 162.942 496.484 162.826 496.564C162.71 496.644 162.62 496.736 162.556 496.84C162.496 496.944 162.466 497.066 162.466 497.206C162.466 497.366 162.506 497.508 162.586 497.632C162.666 497.752 162.782 497.848 162.934 497.92C163.09 497.992 163.282 498.028 163.51 498.028ZM168.813 501.88L170.061 498.454L170.085 499.462L167.259 492.52H168.765L170.769 497.656H170.385L172.335 492.52H173.781L170.169 501.88H168.813Z" fill="white"/>
<path d="M88.5147 396.515L97 405L88.5147 413.485V396.515Z" fill="white"/>
<rect opacity="0.1" x="113" y="385" width="200" height="40" rx="4" fill="white"/>
<rect opacity="0.1" x="333" y="401" width="243" height="8" rx="4" fill="white"/>
<rect opacity="0.2" x="596" y="391" width="48" height="28" rx="14" fill="white"/>
<g filter="url(#filter8_d)">
<rect x="598" y="393" width="24" height="24" rx="12" fill="white"/>
</g>
<g filter="url(#filter9_d)">
<rect x="399" y="393" width="24" height="24" rx="12" fill="white"/>
</g>
<path opacity="0.2" d="M129.84 410V401.36H133.266C133.85 401.36 134.328 401.478 134.7 401.714C135.076 401.946 135.354 402.244 135.534 402.608C135.718 402.972 135.81 403.348 135.81 403.736C135.81 404.212 135.696 404.616 135.468 404.948C135.244 405.28 134.938 405.504 134.55 405.62V405.32C135.094 405.444 135.506 405.702 135.786 406.094C136.07 406.486 136.212 406.932 136.212 407.432C136.212 407.944 136.114 408.392 135.918 408.776C135.722 409.16 135.43 409.46 135.042 409.676C134.658 409.892 134.182 410 133.614 410H129.84ZM131.304 408.638H133.434C133.686 408.638 133.912 408.588 134.112 408.488C134.312 408.384 134.468 408.24 134.58 408.056C134.696 407.868 134.754 407.646 134.754 407.39C134.754 407.158 134.704 406.95 134.604 406.766C134.504 406.582 134.358 406.436 134.166 406.328C133.974 406.216 133.744 406.16 133.476 406.16H131.304V408.638ZM131.304 404.81H133.248C133.456 404.81 133.642 404.77 133.806 404.69C133.97 404.61 134.1 404.492 134.196 404.336C134.292 404.18 134.34 403.988 134.34 403.76C134.34 403.46 134.244 403.21 134.052 403.01C133.86 402.81 133.592 402.71 133.248 402.71H131.304V404.81ZM139.222 410.18C138.754 410.18 138.358 410.092 138.034 409.916C137.71 409.736 137.464 409.498 137.296 409.202C137.132 408.906 137.05 408.58 137.05 408.224C137.05 407.912 137.102 407.632 137.206 407.384C137.31 407.132 137.47 406.916 137.686 406.736C137.902 406.552 138.182 406.402 138.526 406.286C138.786 406.202 139.09 406.126 139.438 406.058C139.79 405.99 140.17 405.928 140.578 405.872C140.99 405.812 141.42 405.748 141.868 405.68L141.352 405.974C141.356 405.526 141.256 405.196 141.052 404.984C140.848 404.772 140.504 404.666 140.02 404.666C139.728 404.666 139.446 404.734 139.174 404.87C138.902 405.006 138.712 405.24 138.604 405.572L137.284 405.158C137.444 404.61 137.748 404.17 138.196 403.838C138.648 403.506 139.256 403.34 140.02 403.34C140.596 403.34 141.102 403.434 141.538 403.622C141.978 403.81 142.304 404.118 142.516 404.546C142.632 404.774 142.702 405.008 142.726 405.248C142.75 405.484 142.762 405.742 142.762 406.022V410H141.496V408.596L141.706 408.824C141.414 409.292 141.072 409.636 140.68 409.856C140.292 410.072 139.806 410.18 139.222 410.18ZM139.51 409.028C139.838 409.028 140.118 408.97 140.35 408.854C140.582 408.738 140.766 408.596 140.902 408.428C141.042 408.26 141.136 408.102 141.184 407.954C141.26 407.77 141.302 407.56 141.31 407.324C141.322 407.084 141.328 406.89 141.328 406.742L141.772 406.874C141.336 406.942 140.962 407.002 140.65 407.054C140.338 407.106 140.07 407.156 139.846 407.204C139.622 407.248 139.424 407.298 139.252 407.354C139.084 407.414 138.942 407.484 138.826 407.564C138.71 407.644 138.62 407.736 138.556 407.84C138.496 407.944 138.466 408.066 138.466 408.206C138.466 408.366 138.506 408.508 138.586 408.632C138.666 408.752 138.782 408.848 138.934 408.92C139.09 408.992 139.282 409.028 139.51 409.028ZM148.122 410C147.694 410.08 147.274 410.114 146.862 410.102C146.454 410.094 146.088 410.02 145.764 409.88C145.44 409.736 145.194 409.51 145.026 409.202C144.878 408.922 144.8 408.636 144.792 408.344C144.784 408.052 144.78 407.722 144.78 407.354V401.72H146.22V407.27C146.22 407.53 146.222 407.758 146.226 407.954C146.234 408.15 146.276 408.31 146.352 408.434C146.496 408.674 146.726 408.808 147.042 408.836C147.358 408.864 147.718 408.848 148.122 408.788V410ZM143.604 404.654V403.52H148.122V404.654H143.604ZM153.998 410V406.88C153.998 406.676 153.984 406.45 153.956 406.202C153.928 405.954 153.862 405.716 153.758 405.488C153.658 405.256 153.506 405.066 153.302 404.918C153.102 404.77 152.83 404.696 152.486 404.696C152.302 404.696 152.12 404.726 151.94 404.786C151.76 404.846 151.596 404.95 151.448 405.098C151.304 405.242 151.188 405.442 151.1 405.698C151.012 405.95 150.968 406.274 150.968 406.67L150.11 406.304C150.11 405.752 150.216 405.252 150.428 404.804C150.644 404.356 150.96 404 151.376 403.736C151.792 403.468 152.304 403.334 152.912 403.334C153.392 403.334 153.788 403.414 154.1 403.574C154.412 403.734 154.66 403.938 154.844 404.186C155.028 404.434 155.164 404.698 155.252 404.978C155.34 405.258 155.396 405.524 155.42 405.776C155.448 406.024 155.462 406.226 155.462 406.382V410H153.998ZM149.504 410V401.36H150.794V405.908H150.968V410H149.504ZM157.028 410V403.52H158.306V405.098L158.15 404.894C158.23 404.678 158.336 404.482 158.468 404.306C158.604 404.126 158.766 403.978 158.954 403.862C159.114 403.754 159.29 403.67 159.482 403.61C159.678 403.546 159.878 403.508 160.082 403.496C160.286 403.48 160.484 403.488 160.676 403.52V404.87C160.484 404.814 160.262 404.796 160.01 404.816C159.762 404.836 159.538 404.906 159.338 405.026C159.138 405.134 158.974 405.272 158.846 405.44C158.722 405.608 158.63 405.8 158.57 406.016C158.51 406.228 158.48 406.458 158.48 406.706V410H157.028ZM164.565 410.18C163.917 410.18 163.351 410.034 162.867 409.742C162.383 409.45 162.007 409.048 161.739 408.536C161.475 408.02 161.343 407.428 161.343 406.76C161.343 406.08 161.479 405.484 161.751 404.972C162.023 404.46 162.401 404.06 162.885 403.772C163.369 403.484 163.929 403.34 164.565 403.34C165.217 403.34 165.785 403.486 166.269 403.778C166.753 404.07 167.129 404.474 167.397 404.99C167.665 405.502 167.799 406.092 167.799 406.76C167.799 407.432 167.663 408.026 167.391 408.542C167.123 409.054 166.747 409.456 166.263 409.748C165.779 410.036 165.213 410.18 164.565 410.18ZM164.565 408.824C165.141 408.824 165.569 408.632 165.849 408.248C166.129 407.864 166.269 407.368 166.269 406.76C166.269 406.132 166.127 405.632 165.843 405.26C165.559 404.884 165.133 404.696 164.565 404.696C164.177 404.696 163.857 404.784 163.605 404.96C163.357 405.132 163.173 405.374 163.053 405.686C162.933 405.994 162.873 406.352 162.873 406.76C162.873 407.388 163.015 407.89 163.299 408.266C163.587 408.638 164.009 408.824 164.565 408.824ZM171.983 410.18C171.335 410.18 170.769 410.034 170.285 409.742C169.801 409.45 169.425 409.048 169.157 408.536C168.893 408.02 168.761 407.428 168.761 406.76C168.761 406.08 168.897 405.484 169.169 404.972C169.441 404.46 169.819 404.06 170.303 403.772C170.787 403.484 171.347 403.34 171.983 403.34C172.635 403.34 173.203 403.486 173.687 403.778C174.171 404.07 174.547 404.474 174.815 404.99C175.083 405.502 175.217 406.092 175.217 406.76C175.217 407.432 175.081 408.026 174.809 408.542C174.541 409.054 174.165 409.456 173.681 409.748C173.197 410.036 172.631 410.18 171.983 410.18ZM171.983 408.824C172.559 408.824 172.987 408.632 173.267 408.248C173.547 407.864 173.687 407.368 173.687 406.76C173.687 406.132 173.545 405.632 173.261 405.26C172.977 404.884 172.551 404.696 171.983 404.696C171.595 404.696 171.275 404.784 171.023 404.96C170.775 405.132 170.591 405.374 170.471 405.686C170.351 405.994 170.291 406.352 170.291 406.76C170.291 407.388 170.433 407.89 170.717 408.266C171.005 408.638 171.427 408.824 171.983 408.824ZM184.321 410V406.064C184.321 405.62 184.211 405.274 183.991 405.026C183.771 404.774 183.473 404.648 183.097 404.648C182.865 404.648 182.657 404.702 182.473 404.81C182.289 404.914 182.143 405.07 182.035 405.278C181.927 405.482 181.873 405.726 181.873 406.01L181.231 405.632C181.227 405.184 181.327 404.79 181.531 404.45C181.739 404.106 182.019 403.838 182.371 403.646C182.723 403.454 183.115 403.358 183.547 403.358C184.263 403.358 184.811 403.574 185.191 404.006C185.575 404.434 185.767 404.998 185.767 405.698V410H184.321ZM176.527 410V403.52H177.805V405.53H177.985V410H176.527ZM180.433 410V406.082C180.433 405.63 180.323 405.278 180.103 405.026C179.883 404.774 179.583 404.648 179.203 404.648C178.835 404.648 178.539 404.774 178.315 405.026C178.095 405.278 177.985 405.606 177.985 406.01L177.337 405.578C177.337 405.158 177.441 404.78 177.649 404.444C177.857 404.108 178.137 403.844 178.489 403.652C178.845 403.456 179.243 403.358 179.683 403.358C180.167 403.358 180.571 403.462 180.895 403.67C181.223 403.874 181.467 404.154 181.627 404.51C181.791 404.862 181.873 405.26 181.873 405.704V410H180.433Z" fill="white"/>
<rect opacity="0.1" x="64" y="182" width="600" height="1" fill="white"/>
<rect opacity="0.1" x="64" y="271" width="600" height="1" fill="white"/>
<rect opacity="0.1" x="64" y="360" width="600" height="1" fill="white"/>
<rect opacity="0.1" x="64" y="449" width="600" height="1" fill="white"/>
<path d="M753.12 81V69.48H757.608C758.296 69.48 758.883 69.6213 759.368 69.904C759.859 70.1867 760.232 70.56 760.488 71.024C760.749 71.4827 760.88 71.9787 760.88 72.512C760.88 73.136 760.72 73.6827 760.4 74.152C760.08 74.6213 759.648 74.944 759.104 75.12L759.088 74.728C759.829 74.9253 760.405 75.288 760.816 75.816C761.227 76.344 761.432 76.9733 761.432 77.704C761.432 78.376 761.293 78.9573 761.016 79.448C760.744 79.9387 760.349 80.32 759.832 80.592C759.32 80.864 758.712 81 758.008 81H753.12ZM754.56 79.64H757.736C758.163 79.64 758.544 79.5627 758.88 79.408C759.216 79.248 759.48 79.024 759.672 78.736C759.869 78.448 759.968 78.1013 759.968 77.696C759.968 77.3067 759.88 76.9573 759.704 76.648C759.533 76.3387 759.291 76.0933 758.976 75.912C758.667 75.7253 758.307 75.632 757.896 75.632H754.56V79.64ZM754.56 74.288H757.592C757.933 74.288 758.24 74.216 758.512 74.072C758.789 73.9227 759.008 73.7147 759.168 73.448C759.333 73.1813 759.416 72.8693 759.416 72.512C759.416 72.016 759.248 71.6107 758.912 71.296C758.576 70.9813 758.136 70.824 757.592 70.824H754.56V74.288ZM766.77 81.24C765.922 81.24 765.181 81.0533 764.546 80.68C763.917 80.3013 763.426 79.776 763.074 79.104C762.722 78.4267 762.546 77.6373 762.546 76.736C762.546 75.792 762.72 74.976 763.066 74.288C763.413 73.5947 763.896 73.0613 764.514 72.688C765.138 72.3093 765.869 72.12 766.706 72.12C767.576 72.12 768.314 72.32 768.922 72.72C769.536 73.12 769.994 73.6907 770.298 74.432C770.608 75.1733 770.741 76.056 770.698 77.08H769.258V76.568C769.242 75.5067 769.026 74.7147 768.61 74.192C768.194 73.664 767.576 73.4 766.754 73.4C765.874 73.4 765.205 73.6827 764.746 74.248C764.288 74.8133 764.058 75.624 764.058 76.68C764.058 77.6987 764.288 78.488 764.746 79.048C765.205 79.608 765.858 79.888 766.706 79.888C767.277 79.888 767.773 79.7573 768.194 79.496C768.616 79.2347 768.946 78.8587 769.186 78.368L770.554 78.84C770.218 79.6027 769.712 80.1947 769.034 80.616C768.362 81.032 767.608 81.24 766.77 81.24ZM763.578 77.08V75.936H769.962V77.08H763.578ZM775.871 81.24C775.066 81.24 774.375 81.04 773.799 80.64C773.223 80.2347 772.778 79.688 772.463 79C772.154 78.312 771.999 77.536 771.999 76.672C771.999 75.808 772.154 75.032 772.463 74.344C772.778 73.656 773.223 73.1147 773.799 72.72C774.375 72.32 775.063 72.12 775.863 72.12C776.679 72.12 777.365 72.3173 777.919 72.712C778.474 73.1067 778.893 73.648 779.175 74.336C779.463 75.024 779.607 75.8027 779.607 76.672C779.607 77.5307 779.463 78.3067 779.175 79C778.893 79.688 778.474 80.2347 777.919 80.64C777.365 81.04 776.682 81.24 775.871 81.24ZM776.047 79.936C776.629 79.936 777.106 79.7973 777.479 79.52C777.853 79.2373 778.127 78.8507 778.303 78.36C778.485 77.864 778.575 77.3013 778.575 76.672C778.575 76.032 778.485 75.4693 778.303 74.984C778.127 74.4933 777.855 74.112 777.487 73.84C777.119 73.5627 776.653 73.424 776.087 73.424C775.501 73.424 775.015 73.568 774.631 73.856C774.253 74.144 773.97 74.5333 773.783 75.024C773.602 75.5147 773.511 76.064 773.511 76.672C773.511 77.2853 773.605 77.84 773.791 78.336C773.978 78.8267 774.258 79.216 774.631 79.504C775.01 79.792 775.482 79.936 776.047 79.936ZM778.575 81V74.64H778.415V69.48H779.847V81H778.575ZM782.089 81V72.36H783.361V74.448L783.153 74.176C783.254 73.9093 783.385 73.664 783.545 73.44C783.71 73.216 783.894 73.032 784.097 72.888C784.321 72.7067 784.574 72.568 784.857 72.472C785.139 72.376 785.427 72.32 785.721 72.304C786.014 72.2827 786.289 72.3013 786.545 72.36V73.696C786.246 73.616 785.918 73.5947 785.561 73.632C785.203 73.6693 784.873 73.8 784.569 74.024C784.291 74.2213 784.075 74.4613 783.921 74.744C783.771 75.0267 783.667 75.3333 783.609 75.664C783.55 75.9893 783.521 76.3227 783.521 76.664V81H782.089ZM791.581 81.24C790.723 81.24 789.981 81.0453 789.357 80.656C788.739 80.2667 788.261 79.728 787.925 79.04C787.589 78.352 787.421 77.5627 787.421 76.672C787.421 75.7653 787.592 74.9707 787.933 74.288C788.275 73.6053 788.757 73.0747 789.381 72.696C790.005 72.312 790.739 72.12 791.581 72.12C792.445 72.12 793.189 72.3147 793.813 72.704C794.437 73.088 794.915 73.624 795.245 74.312C795.581 74.9947 795.749 75.7813 795.749 76.672C795.749 77.5733 795.581 78.368 795.245 79.056C794.909 79.7387 794.429 80.2747 793.805 80.664C793.181 81.048 792.44 81.24 791.581 81.24ZM791.581 79.888C792.477 79.888 793.144 79.5893 793.581 78.992C794.019 78.3947 794.237 77.6213 794.237 76.672C794.237 75.696 794.016 74.92 793.573 74.344C793.131 73.7627 792.467 73.472 791.581 73.472C790.979 73.472 790.483 73.608 790.093 73.88C789.704 74.152 789.413 74.528 789.221 75.008C789.029 75.488 788.933 76.0427 788.933 76.672C788.933 77.6427 789.157 78.4213 789.605 79.008C790.053 79.5947 790.712 79.888 791.581 79.888ZM801.191 81.24C800.332 81.24 799.591 81.0453 798.967 80.656C798.348 80.2667 797.871 79.728 797.535 79.04C797.199 78.352 797.031 77.5627 797.031 76.672C797.031 75.7653 797.201 74.9707 797.543 74.288C797.884 73.6053 798.367 73.0747 798.991 72.696C799.615 72.312 800.348 72.12 801.191 72.12C802.055 72.12 802.799 72.3147 803.423 72.704C804.047 73.088 804.524 73.624 804.855 74.312C805.191 74.9947 805.359 75.7813 805.359 76.672C805.359 77.5733 805.191 78.368 804.855 79.056C804.519 79.7387 804.039 80.2747 803.415 80.664C802.791 81.048 802.049 81.24 801.191 81.24ZM801.191 79.888C802.087 79.888 802.753 79.5893 803.191 78.992C803.628 78.3947 803.847 77.6213 803.847 76.672C803.847 75.696 803.625 74.92 803.183 74.344C802.74 73.7627 802.076 73.472 801.191 73.472C800.588 73.472 800.092 73.608 799.703 73.88C799.313 74.152 799.023 74.528 798.831 75.008C798.639 75.488 798.543 76.0427 798.543 76.672C798.543 77.6427 798.767 78.4213 799.215 79.008C799.663 79.5947 800.321 79.888 801.191 79.888ZM817.448 81L817.456 75.472C817.456 74.8267 817.283 74.3227 816.936 73.96C816.595 73.592 816.149 73.408 815.6 73.408C815.28 73.408 814.976 73.4827 814.688 73.632C814.4 73.776 814.165 74.0053 813.984 74.32C813.803 74.6293 813.712 75.0267 813.712 75.512L812.96 75.208C812.949 74.5947 813.075 74.0587 813.336 73.6C813.603 73.136 813.965 72.776 814.424 72.52C814.883 72.264 815.4 72.136 815.976 72.136C816.877 72.136 817.587 72.4107 818.104 72.96C818.621 73.504 818.88 74.2373 818.88 75.16L818.872 81H817.448ZM807.112 81V72.36H808.384V74.672H808.544V81H807.112ZM812.288 81L812.296 75.528C812.296 74.8667 812.125 74.3493 811.784 73.976C811.443 73.5973 810.989 73.408 810.424 73.408C809.864 73.408 809.411 73.6 809.064 73.984C808.717 74.368 808.544 74.8773 808.544 75.512L807.792 75.064C807.792 74.504 807.925 74.0027 808.192 73.56C808.459 73.1173 808.821 72.7707 809.28 72.52C809.739 72.264 810.259 72.136 810.84 72.136C811.421 72.136 811.928 72.2587 812.36 72.504C812.792 72.7493 813.125 73.1013 813.36 73.56C813.595 74.0133 813.712 74.5547 813.712 75.184L813.704 81H812.288Z" fill="white"/>
<path d="M114.12 81V69.48H115.544V74.56H121.608V69.48H123.032V81H121.608V75.912H115.544V81H114.12ZM128.956 81.24C128.098 81.24 127.356 81.0453 126.732 80.656C126.114 80.2667 125.636 79.728 125.3 79.04C124.964 78.352 124.796 77.5627 124.796 76.672C124.796 75.7653 124.967 74.9707 125.308 74.288C125.65 73.6053 126.132 73.0747 126.756 72.696C127.38 72.312 128.114 72.12 128.956 72.12C129.82 72.12 130.564 72.3147 131.188 72.704C131.812 73.088 132.29 73.624 132.62 74.312C132.956 74.9947 133.124 75.7813 133.124 76.672C133.124 77.5733 132.956 78.368 132.62 79.056C132.284 79.7387 131.804 80.2747 131.18 80.664C130.556 81.048 129.815 81.24 128.956 81.24ZM128.956 79.888C129.852 79.888 130.519 79.5893 130.956 78.992C131.394 78.3947 131.612 77.6213 131.612 76.672C131.612 75.696 131.391 74.92 130.948 74.344C130.506 73.7627 129.842 73.472 128.956 73.472C128.354 73.472 127.858 73.608 127.468 73.88C127.079 74.152 126.788 74.528 126.596 75.008C126.404 75.488 126.308 76.0427 126.308 76.672C126.308 77.6427 126.532 78.4213 126.98 79.008C127.428 79.5947 128.087 79.888 128.956 79.888ZM145.214 81L145.222 75.472C145.222 74.8267 145.048 74.3227 144.702 73.96C144.36 73.592 143.915 73.408 143.366 73.408C143.046 73.408 142.742 73.4827 142.454 73.632C142.166 73.776 141.931 74.0053 141.75 74.32C141.568 74.6293 141.478 75.0267 141.478 75.512L140.726 75.208C140.715 74.5947 140.84 74.0587 141.102 73.6C141.368 73.136 141.731 72.776 142.19 72.52C142.648 72.264 143.166 72.136 143.742 72.136C144.643 72.136 145.352 72.4107 145.87 72.96C146.387 73.504 146.646 74.2373 146.646 75.16L146.638 81H145.214ZM134.878 81V72.36H136.15V74.672H136.31V81H134.878ZM140.054 81L140.062 75.528C140.062 74.8667 139.891 74.3493 139.55 73.976C139.208 73.5973 138.755 73.408 138.19 73.408C137.63 73.408 137.176 73.6 136.83 73.984C136.483 74.368 136.31 74.8773 136.31 75.512L135.558 75.064C135.558 74.504 135.691 74.0027 135.958 73.56C136.224 73.1173 136.587 72.7707 137.046 72.52C137.504 72.264 138.024 72.136 138.606 72.136C139.187 72.136 139.694 72.2587 140.126 72.504C140.558 72.7493 140.891 73.1013 141.126 73.56C141.36 74.0133 141.478 74.5547 141.478 75.184L141.47 81H140.054ZM152.395 81.24C151.547 81.24 150.806 81.0533 150.171 80.68C149.542 80.3013 149.051 79.776 148.699 79.104C148.347 78.4267 148.171 77.6373 148.171 76.736C148.171 75.792 148.345 74.976 148.691 74.288C149.038 73.5947 149.521 73.0613 150.139 72.688C150.763 72.3093 151.494 72.12 152.331 72.12C153.201 72.12 153.939 72.32 154.547 72.72C155.161 73.12 155.619 73.6907 155.923 74.432C156.233 75.1733 156.366 76.056 156.323 77.08H154.883V76.568C154.867 75.5067 154.651 74.7147 154.235 74.192C153.819 73.664 153.201 73.4 152.379 73.4C151.499 73.4 150.83 73.6827 150.371 74.248C149.913 74.8133 149.683 75.624 149.683 76.68C149.683 77.6987 149.913 78.488 150.371 79.048C150.83 79.608 151.483 79.888 152.331 79.888C152.902 79.888 153.398 79.7573 153.819 79.496C154.241 79.2347 154.571 78.8587 154.811 78.368L156.179 78.84C155.843 79.6027 155.337 80.1947 154.659 80.616C153.987 81.032 153.233 81.24 152.395 81.24ZM149.203 77.08V75.936H155.587V77.08H149.203Z" fill="white"/>
<path d="M752.84 434V425.36H754.286V428.996H758.378V425.36H759.818V434H758.378V430.352H754.286V434H752.84ZM764.446 434.18C763.79 434.18 763.214 434.038 762.718 433.754C762.222 433.47 761.834 433.076 761.554 432.572C761.278 432.068 761.14 431.488 761.14 430.832C761.14 430.124 761.276 429.51 761.548 428.99C761.82 428.466 762.198 428.06 762.682 427.772C763.166 427.484 763.726 427.34 764.362 427.34C765.034 427.34 765.604 427.498 766.072 427.814C766.544 428.126 766.894 428.568 767.122 429.14C767.35 429.712 767.436 430.386 767.38 431.162H765.946V430.634C765.942 429.93 765.818 429.416 765.574 429.092C765.33 428.768 764.946 428.606 764.422 428.606C763.83 428.606 763.39 428.79 763.102 429.158C762.814 429.522 762.67 430.056 762.67 430.76C762.67 431.416 762.814 431.924 763.102 432.284C763.39 432.644 763.81 432.824 764.362 432.824C764.718 432.824 765.024 432.746 765.28 432.59C765.54 432.43 765.74 432.2 765.88 431.9L767.308 432.332C767.06 432.916 766.676 433.37 766.156 433.694C765.64 434.018 765.07 434.18 764.446 434.18ZM762.214 431.162V430.07H766.672V431.162H762.214ZM767.765 434L770.135 430.724L767.813 427.52H769.517L770.975 429.59L772.409 427.52H774.113L771.791 430.724L774.173 434H772.469L770.975 431.858L769.469 434H767.765Z" fill="white"/>
<rect opacity="0.1" x="752" y="369" width="120" height="40" rx="4" fill="white"/>
<path d="M771.2 394.992L772.096 391.64H768.96L769.32 390.28H772.464L773.08 387.944H769.944L770.312 386.592H773.448L774.28 383.48H775.688L774.848 386.592H777.288L778.12 383.48H779.528L778.688 386.592H781.824L781.464 387.944H778.328L777.696 390.28H780.832L780.472 391.64H777.336L776.44 394.992H775.04L775.928 391.64H773.496L772.6 394.992H771.2ZM773.864 390.28H776.296L776.92 387.944H774.488L773.864 390.28ZM787.501 395.24C786.765 395.24 786.115 395.093 785.549 394.8C784.984 394.501 784.541 394.088 784.221 393.56C783.901 393.032 783.741 392.416 783.741 391.712C783.741 391.024 783.904 390.403 784.229 389.848C784.56 389.293 785.056 388.867 785.717 388.568L785.693 389.088C785.155 388.827 784.741 388.459 784.453 387.984C784.165 387.504 784.021 386.973 784.021 386.392C784.021 385.741 784.171 385.181 784.469 384.712C784.768 384.243 785.179 383.88 785.701 383.624C786.224 383.368 786.824 383.24 787.501 383.24C788.179 383.24 788.779 383.368 789.301 383.624C789.824 383.88 790.235 384.243 790.533 384.712C790.832 385.181 790.981 385.741 790.981 386.392C790.981 386.973 790.845 387.501 790.573 387.976C790.301 388.445 789.883 388.816 789.317 389.088L789.285 388.576C789.947 388.864 790.443 389.288 790.773 389.848C791.109 390.403 791.277 391.024 791.277 391.712C791.277 392.416 791.115 393.032 790.789 393.56C790.469 394.088 790.024 394.501 789.453 394.8C788.888 395.093 788.237 395.24 787.501 395.24ZM787.501 393.88C788.173 393.88 788.717 393.696 789.133 393.328C789.555 392.955 789.765 392.416 789.765 391.712C789.765 391.003 789.557 390.464 789.141 390.096C788.731 389.723 788.184 389.536 787.501 389.536C786.824 389.536 786.277 389.723 785.861 390.096C785.451 390.464 785.245 391.003 785.245 391.712C785.245 392.416 785.453 392.955 785.869 393.328C786.285 393.696 786.829 393.88 787.501 393.88ZM787.501 388.168C788.088 388.168 788.563 388.021 788.925 387.728C789.288 387.429 789.469 386.984 789.469 386.392C789.469 385.8 789.288 385.357 788.925 385.064C788.563 384.765 788.088 384.616 787.501 384.616C786.92 384.616 786.445 384.765 786.077 385.064C785.715 385.357 785.533 385.8 785.533 386.392C785.533 386.984 785.715 387.429 786.077 387.728C786.445 388.021 786.92 388.168 787.501 388.168ZM792.554 395L796.41 383.48H798.394L802.25 395H800.77L797.162 384.312H797.61L794.034 395H792.554ZM794.41 392.304V390.968H800.394V392.304H794.41ZM807.091 395.24C806.499 395.24 805.947 395.117 805.435 394.872C804.928 394.627 804.493 394.291 804.131 393.864C803.773 393.432 803.517 392.936 803.363 392.376L804.731 392.008C804.827 392.387 804.997 392.715 805.243 392.992C805.488 393.264 805.773 393.477 806.099 393.632C806.429 393.781 806.773 393.856 807.131 393.856C807.6 393.856 808.021 393.744 808.395 393.52C808.773 393.291 809.072 392.989 809.291 392.616C809.509 392.237 809.619 391.824 809.619 391.376C809.619 390.912 809.504 390.493 809.275 390.12C809.051 389.741 808.749 389.443 808.371 389.224C807.992 389.005 807.579 388.896 807.131 388.896C806.624 388.896 806.189 389.003 805.827 389.216C805.469 389.424 805.187 389.68 804.979 389.984L803.715 389.504L804.067 383.48H810.251V384.832H804.755L805.387 384.24L805.091 389.064L804.779 388.656C805.099 388.315 805.48 388.051 805.923 387.864C806.371 387.677 806.827 387.584 807.291 387.584C808.005 387.584 808.645 387.752 809.211 388.088C809.776 388.419 810.224 388.872 810.555 389.448C810.885 390.019 811.051 390.661 811.051 391.376C811.051 392.085 810.869 392.733 810.507 393.32C810.144 393.901 809.661 394.368 809.059 394.72C808.461 395.067 807.805 395.24 807.091 395.24ZM816.892 395.24C816.161 395.24 815.497 395.064 814.9 394.712C814.308 394.36 813.836 393.88 813.484 393.272C813.137 392.659 812.964 391.968 812.964 391.2V387.368C812.964 386.563 813.137 385.851 813.484 385.232C813.836 384.608 814.316 384.123 814.924 383.776C815.537 383.424 816.236 383.248 817.02 383.248C817.654 383.248 818.244 383.379 818.788 383.64C819.337 383.896 819.798 384.267 820.172 384.752L819.108 385.696C818.878 385.36 818.58 385.093 818.212 384.896C817.844 384.699 817.446 384.6 817.02 384.6C816.513 384.6 816.062 384.723 815.668 384.968C815.278 385.208 814.972 385.528 814.748 385.928C814.524 386.323 814.412 386.749 814.412 387.208V389.52L814.1 389.168C814.436 388.688 814.862 388.304 815.38 388.016C815.897 387.728 816.457 387.584 817.06 387.584C817.774 387.584 818.414 387.752 818.98 388.088C819.55 388.424 819.998 388.88 820.324 389.456C820.654 390.027 820.82 390.669 820.82 391.384C820.82 392.099 820.641 392.747 820.284 393.328C819.926 393.909 819.449 394.373 818.852 394.72C818.26 395.067 817.606 395.24 816.892 395.24ZM816.892 393.864C817.35 393.864 817.769 393.755 818.148 393.536C818.526 393.312 818.825 393.013 819.044 392.64C819.268 392.261 819.38 391.843 819.38 391.384C819.38 390.925 819.268 390.507 819.044 390.128C818.825 389.749 818.526 389.451 818.148 389.232C817.774 389.008 817.358 388.896 816.9 388.896C816.441 388.896 816.022 389.008 815.644 389.232C815.27 389.451 814.972 389.749 814.748 390.128C814.524 390.507 814.412 390.925 814.412 391.384C814.412 391.837 814.521 392.253 814.74 392.632C814.964 393.005 815.262 393.304 815.636 393.528C816.014 393.752 816.433 393.864 816.892 393.864ZM822.581 394.992L822.589 393.712L827.701 389.112C828.128 388.728 828.413 388.365 828.557 388.024C828.707 387.677 828.781 387.323 828.781 386.96C828.781 386.517 828.68 386.117 828.477 385.76C828.275 385.403 827.997 385.12 827.645 384.912C827.299 384.704 826.904 384.6 826.461 384.6C826.003 384.6 825.595 384.709 825.237 384.928C824.88 385.141 824.597 385.427 824.389 385.784C824.187 386.141 824.088 386.531 824.093 386.952H822.637C822.637 386.227 822.805 385.587 823.141 385.032C823.477 384.472 823.933 384.035 824.509 383.72C825.091 383.4 825.749 383.24 826.485 383.24C827.2 383.24 827.84 383.405 828.405 383.736C828.971 384.061 829.416 384.507 829.741 385.072C830.072 385.632 830.237 386.267 830.237 386.976C830.237 387.477 830.173 387.912 830.045 388.28C829.923 388.648 829.731 388.989 829.469 389.304C829.208 389.613 828.88 389.944 828.485 390.296L824.237 394.112L824.053 393.632H830.237V394.992H822.581ZM832.151 395V383.48H835.703C835.821 383.48 836.026 383.483 836.319 383.488C836.613 383.493 836.893 383.515 837.159 383.552C838.05 383.669 838.794 383.995 839.391 384.528C839.994 385.056 840.447 385.728 840.751 386.544C841.055 387.36 841.207 388.259 841.207 389.24C841.207 390.221 841.055 391.12 840.751 391.936C840.447 392.752 839.994 393.427 839.391 393.96C838.794 394.488 838.05 394.811 837.159 394.928C836.893 394.96 836.61 394.981 836.311 394.992C836.018 394.997 835.815 395 835.703 395H832.151ZM833.615 393.64H835.703C835.906 393.64 836.133 393.635 836.383 393.624C836.634 393.608 836.853 393.584 837.039 393.552C837.669 393.435 838.178 393.171 838.567 392.76C838.957 392.349 839.242 391.837 839.423 391.224C839.605 390.611 839.695 389.949 839.695 389.24C839.695 388.515 839.602 387.845 839.415 387.232C839.234 386.619 838.949 386.109 838.559 385.704C838.17 385.299 837.663 385.04 837.039 384.928C836.853 384.891 836.631 384.867 836.375 384.856C836.119 384.845 835.895 384.84 835.703 384.84H833.615V393.64Z" fill="white"/>
<path d="M892.84 434V425.36H896.41C896.494 425.36 896.602 425.364 896.734 425.372C896.866 425.376 896.988 425.388 897.1 425.408C897.6 425.484 898.012 425.65 898.336 425.906C898.664 426.162 898.906 426.486 899.062 426.878C899.222 427.266 899.302 427.698 899.302 428.174C899.302 428.878 899.124 429.484 898.768 429.992C898.412 430.496 897.866 430.808 897.13 430.928L896.512 430.982H894.286V434H892.84ZM897.802 434L896.098 430.484L897.568 430.16L899.44 434H897.802ZM894.286 429.632H896.35C896.43 429.632 896.52 429.628 896.62 429.62C896.72 429.612 896.812 429.596 896.896 429.572C897.136 429.512 897.324 429.406 897.46 429.254C897.6 429.102 897.698 428.93 897.754 428.738C897.814 428.546 897.844 428.358 897.844 428.174C897.844 427.99 897.814 427.802 897.754 427.61C897.698 427.414 897.6 427.24 897.46 427.088C897.324 426.936 897.136 426.83 896.896 426.77C896.812 426.746 896.72 426.732 896.62 426.728C896.52 426.72 896.43 426.716 896.35 426.716H894.286V429.632ZM904.326 434.18C903.766 434.18 903.24 434.082 902.748 433.886C902.26 433.686 901.83 433.394 901.458 433.01C901.09 432.626 900.802 432.156 900.594 431.6C900.386 431.04 900.282 430.4 900.282 429.68C900.282 428.736 900.458 427.93 900.81 427.262C901.162 426.59 901.644 426.076 902.256 425.72C902.868 425.36 903.558 425.18 904.326 425.18C905.39 425.18 906.232 425.428 906.852 425.924C907.476 426.416 907.898 427.108 908.118 428L906.642 428.234C906.478 427.722 906.21 427.314 905.838 427.01C905.466 426.702 904.992 426.548 904.416 426.548C903.836 426.54 903.354 426.666 902.97 426.926C902.586 427.186 902.296 427.552 902.1 428.024C901.908 428.496 901.812 429.048 901.812 429.68C901.812 430.312 901.908 430.862 902.1 431.33C902.292 431.794 902.58 432.156 902.964 432.416C903.352 432.676 903.836 432.81 904.416 432.818C904.852 432.822 905.234 432.744 905.562 432.584C905.89 432.42 906.158 432.174 906.366 431.846C906.574 431.514 906.714 431.1 906.786 430.604H905.262V429.47H908.322C908.33 429.534 908.336 429.628 908.34 429.752C908.344 429.876 908.346 429.95 908.346 429.974C908.346 430.79 908.184 431.516 907.86 432.152C907.54 432.784 907.08 433.28 906.48 433.64C905.88 434 905.162 434.18 904.326 434.18ZM909.551 434V425.36H912.977C913.561 425.36 914.039 425.478 914.411 425.714C914.787 425.946 915.065 426.244 915.245 426.608C915.429 426.972 915.521 427.348 915.521 427.736C915.521 428.212 915.407 428.616 915.179 428.948C914.955 429.28 914.649 429.504 914.261 429.62V429.32C914.805 429.444 915.217 429.702 915.497 430.094C915.781 430.486 915.923 430.932 915.923 431.432C915.923 431.944 915.825 432.392 915.629 432.776C915.433 433.16 915.141 433.46 914.753 433.676C914.369 433.892 913.893 434 913.325 434H909.551ZM911.015 432.638H913.145C913.397 432.638 913.623 432.588 913.823 432.488C914.023 432.384 914.179 432.24 914.291 432.056C914.407 431.868 914.465 431.646 914.465 431.39C914.465 431.158 914.415 430.95 914.315 430.766C914.215 430.582 914.069 430.436 913.877 430.328C913.685 430.216 913.455 430.16 913.187 430.16H911.015V432.638ZM911.015 428.81H912.959C913.167 428.81 913.353 428.77 913.517 428.69C913.681 428.61 913.811 428.492 913.907 428.336C914.003 428.18 914.051 427.988 914.051 427.76C914.051 427.46 913.955 427.21 913.763 427.01C913.571 426.81 913.303 426.71 912.959 426.71H911.015V428.81Z" fill="white"/>
<path opacity="0.1" d="M888 373C888 370.791 889.791 369 892 369H948V409H892C889.791 409 888 407.209 888 405V373Z" fill="white"/>
<rect opacity="0.1" x="950" y="369" width="60" height="40" fill="white"/>
<path opacity="0.1" d="M1012 369H1068C1070.21 369 1072 370.791 1072 373V405C1072 407.209 1070.21 409 1068 409H1012V369Z" fill="white"/>
<path d="M907.128 395V385.056L904.96 386.368V384.776L907.128 383.48H908.576V395H907.128ZM914.78 395.224C914.209 395.224 913.679 395.12 913.188 394.912C912.697 394.699 912.273 394.4 911.916 394.016C911.564 393.627 911.305 393.165 911.14 392.632L912.508 392.24C912.684 392.773 912.977 393.179 913.388 393.456C913.799 393.733 914.26 393.869 914.772 393.864C915.241 393.853 915.647 393.747 915.988 393.544C916.335 393.336 916.601 393.053 916.788 392.696C916.98 392.339 917.076 391.925 917.076 391.456C917.076 390.741 916.863 390.163 916.436 389.72C916.009 389.272 915.449 389.048 914.756 389.048C914.564 389.048 914.361 389.075 914.148 389.128C913.94 389.181 913.745 389.256 913.564 389.352L912.876 388.224L917.148 384.36L917.332 384.84H911.596V383.48H918.388V384.848L914.748 388.336L914.732 387.832C915.495 387.779 916.161 387.904 916.732 388.208C917.303 388.512 917.745 388.947 918.06 389.512C918.38 390.077 918.54 390.725 918.54 391.456C918.54 392.192 918.375 392.843 918.044 393.408C917.713 393.973 917.265 394.419 916.7 394.744C916.135 395.064 915.495 395.224 914.78 395.224ZM924.22 395.24C923.484 395.24 922.833 395.093 922.268 394.8C921.703 394.501 921.26 394.088 920.94 393.56C920.62 393.032 920.46 392.416 920.46 391.712C920.46 391.024 920.623 390.403 920.948 389.848C921.279 389.293 921.775 388.867 922.436 388.568L922.412 389.088C921.873 388.827 921.46 388.459 921.172 387.984C920.884 387.504 920.74 386.973 920.74 386.392C920.74 385.741 920.889 385.181 921.188 384.712C921.487 384.243 921.897 383.88 922.42 383.624C922.943 383.368 923.543 383.24 924.22 383.24C924.897 383.24 925.497 383.368 926.02 383.624C926.543 383.88 926.953 384.243 927.252 384.712C927.551 385.181 927.7 385.741 927.7 386.392C927.7 386.973 927.564 387.501 927.292 387.976C927.02 388.445 926.601 388.816 926.036 389.088L926.004 388.576C926.665 388.864 927.161 389.288 927.492 389.848C927.828 390.403 927.996 391.024 927.996 391.712C927.996 392.416 927.833 393.032 927.508 393.56C927.188 394.088 926.743 394.501 926.172 394.8C925.607 395.093 924.956 395.24 924.22 395.24ZM924.22 393.88C924.892 393.88 925.436 393.696 925.852 393.328C926.273 392.955 926.484 392.416 926.484 391.712C926.484 391.003 926.276 390.464 925.86 390.096C925.449 389.723 924.903 389.536 924.22 389.536C923.543 389.536 922.996 389.723 922.58 390.096C922.169 390.464 921.964 391.003 921.964 391.712C921.964 392.416 922.172 392.955 922.588 393.328C923.004 393.696 923.548 393.88 924.22 393.88ZM924.22 388.168C924.807 388.168 925.281 388.021 925.644 387.728C926.007 387.429 926.188 386.984 926.188 386.392C926.188 385.8 926.007 385.357 925.644 385.064C925.281 384.765 924.807 384.616 924.22 384.616C923.639 384.616 923.164 384.765 922.796 385.064C922.433 385.357 922.252 385.8 922.252 386.392C922.252 386.984 922.433 387.429 922.796 387.728C923.164 388.021 923.639 388.168 924.22 388.168Z" fill="white"/>
<path d="M970.72 395.24C969.984 395.24 969.333 395.093 968.768 394.8C968.203 394.501 967.76 394.088 967.44 393.56C967.12 393.032 966.96 392.416 966.96 391.712C966.96 391.024 967.123 390.403 967.448 389.848C967.779 389.293 968.275 388.867 968.936 388.568L968.912 389.088C968.373 388.827 967.96 388.459 967.672 387.984C967.384 387.504 967.24 386.973 967.24 386.392C967.24 385.741 967.389 385.181 967.688 384.712C967.987 384.243 968.397 383.88 968.92 383.624C969.443 383.368 970.043 383.24 970.72 383.24C971.397 383.24 971.997 383.368 972.52 383.624C973.043 383.88 973.453 384.243 973.752 384.712C974.051 385.181 974.2 385.741 974.2 386.392C974.2 386.973 974.064 387.501 973.792 387.976C973.52 388.445 973.101 388.816 972.536 389.088L972.504 388.576C973.165 388.864 973.661 389.288 973.992 389.848C974.328 390.403 974.496 391.024 974.496 391.712C974.496 392.416 974.333 393.032 974.008 393.56C973.688 394.088 973.243 394.501 972.672 394.8C972.107 395.093 971.456 395.24 970.72 395.24ZM970.72 393.88C971.392 393.88 971.936 393.696 972.352 393.328C972.773 392.955 972.984 392.416 972.984 391.712C972.984 391.003 972.776 390.464 972.36 390.096C971.949 389.723 971.403 389.536 970.72 389.536C970.043 389.536 969.496 389.723 969.08 390.096C968.669 390.464 968.464 391.003 968.464 391.712C968.464 392.416 968.672 392.955 969.088 393.328C969.504 393.696 970.048 393.88 970.72 393.88ZM970.72 388.168C971.307 388.168 971.781 388.021 972.144 387.728C972.507 387.429 972.688 386.984 972.688 386.392C972.688 385.8 972.507 385.357 972.144 385.064C971.781 384.765 971.307 384.616 970.72 384.616C970.139 384.616 969.664 384.765 969.296 385.064C968.933 385.357 968.752 385.8 968.752 386.392C968.752 386.984 968.933 387.429 969.296 387.728C969.664 388.021 970.139 388.168 970.72 388.168ZM980.501 395.24C979.77 395.24 979.106 395.064 978.509 394.712C977.917 394.36 977.445 393.88 977.093 393.272C976.746 392.659 976.573 391.968 976.573 391.2V387.368C976.573 386.563 976.746 385.851 977.093 385.232C977.445 384.608 977.925 384.123 978.533 383.776C979.146 383.424 979.845 383.248 980.629 383.248C981.264 383.248 981.853 383.379 982.397 383.64C982.946 383.896 983.408 384.267 983.781 384.752L982.717 385.696C982.488 385.36 982.189 385.093 981.821 384.896C981.453 384.699 981.056 384.6 980.629 384.6C980.122 384.6 979.672 384.723 979.277 384.968C978.888 385.208 978.581 385.528 978.357 385.928C978.133 386.323 978.021 386.749 978.021 387.208V389.52L977.709 389.168C978.045 388.688 978.472 388.304 978.989 388.016C979.506 387.728 980.066 387.584 980.669 387.584C981.384 387.584 982.024 387.752 982.589 388.088C983.16 388.424 983.608 388.88 983.933 389.456C984.264 390.027 984.429 390.669 984.429 391.384C984.429 392.099 984.25 392.747 983.893 393.328C983.536 393.909 983.058 394.373 982.461 394.72C981.869 395.067 981.216 395.24 980.501 395.24ZM980.501 393.864C980.96 393.864 981.378 393.755 981.757 393.536C982.136 393.312 982.434 393.013 982.653 392.64C982.877 392.261 982.989 391.843 982.989 391.384C982.989 390.925 982.877 390.507 982.653 390.128C982.434 389.749 982.136 389.451 981.757 389.232C981.384 389.008 980.968 388.896 980.509 388.896C980.05 388.896 979.632 389.008 979.253 389.232C978.88 389.451 978.581 389.749 978.357 390.128C978.133 390.507 978.021 390.925 978.021 391.384C978.021 391.837 978.13 392.253 978.349 392.632C978.573 393.005 978.872 393.304 979.245 393.528C979.624 393.752 980.042 393.864 980.501 393.864Z" fill="white"/>
<path d="M1034.1 395V392.88H1028.8V391.528L1032.6 383.48H1034.22L1030.42 391.528H1034.1V388.288H1035.54V391.528H1036.74V392.88H1035.54V395H1034.1ZM1042.06 395.24C1041.47 395.24 1040.92 395.117 1040.4 394.872C1039.9 394.627 1039.46 394.291 1039.1 393.864C1038.74 393.432 1038.49 392.936 1038.33 392.376L1039.7 392.008C1039.8 392.387 1039.97 392.715 1040.21 392.992C1040.46 393.264 1040.74 393.477 1041.07 393.632C1041.4 393.781 1041.74 393.856 1042.1 393.856C1042.57 393.856 1042.99 393.744 1043.36 393.52C1043.74 393.291 1044.04 392.989 1044.26 392.616C1044.48 392.237 1044.59 391.824 1044.59 391.376C1044.59 390.912 1044.47 390.493 1044.24 390.12C1044.02 389.741 1043.72 389.443 1043.34 389.224C1042.96 389.005 1042.55 388.896 1042.1 388.896C1041.59 388.896 1041.16 389.003 1040.8 389.216C1040.44 389.424 1040.16 389.68 1039.95 389.984L1038.68 389.504L1039.04 383.48H1045.22V384.832H1039.72L1040.36 384.24L1040.06 389.064L1039.75 388.656C1040.07 388.315 1040.45 388.051 1040.89 387.864C1041.34 387.677 1041.8 387.584 1042.26 387.584C1042.97 387.584 1043.61 387.752 1044.18 388.088C1044.74 388.419 1045.19 388.872 1045.52 389.448C1045.85 390.019 1046.02 390.661 1046.02 391.376C1046.02 392.085 1045.84 392.733 1045.48 393.32C1045.11 393.901 1044.63 394.368 1044.03 394.72C1043.43 395.067 1042.77 395.24 1042.06 395.24Z" fill="white"/>
<path d="M752 122C752 119.791 753.791 118 756 118H1068C1070.21 118 1072 119.791 1072 122V318H752V122Z" fill="url(#paint5_linear)"/>
<path d="M752 122C752 119.791 753.791 118 756 118H1068C1070.21 118 1072 119.791 1072 122V318H752V122Z" fill="url(#paint6_linear)"/>
<rect x="949" y="209" width="10" height="10" rx="5" stroke="white" stroke-width="2"/>
<path d="M752 318H1072V338C1072 340.209 1070.21 342 1068 342H756C753.791 342 752 340.209 752 338V318Z" fill="url(#paint7_linear)"/>
<g filter="url(#filter10_d)">
<rect x="777" y="316" width="8" height="28" rx="4" fill="white"/>
</g>
<defs>
<filter id="filter0_d" x="614" y="122" width="32" height="32" filterUnits="userSpaceOnUse" color-interpolation-filters="sRGB">
<feFlood flood-opacity="0" result="BackgroundImageFix"/>
<feColorMatrix in="SourceAlpha" type="matrix" values="0 0 0 0 0 0 0 0 0 0 0 0 0 0 0 0 0 0 127 0"/>
<feMorphology radius="2" operator="dilate" in="SourceAlpha" result="effect1_dropShadow"/>
<feOffset/>
<feGaussianBlur stdDeviation="1"/>
<feColorMatrix type="matrix" values="0 0 0 0 0 0 0 0 0 0 0 0 0 0 0 0 0 0 0.1 0"/>
<feBlend mode="normal" in2="BackgroundImageFix" result="effect1_dropShadow"/>
<feBlend mode="normal" in="SourceGraphic" in2="effect1_dropShadow" result="shape"/>
</filter>
<filter id="filter1_d" x="425" y="122" width="32" height="32" filterUnits="userSpaceOnUse" color-interpolation-filters="sRGB">
<feFlood flood-opacity="0" result="BackgroundImageFix"/>
<feColorMatrix in="SourceAlpha" type="matrix" values="0 0 0 0 0 0 0 0 0 0 0 0 0 0 0 0 0 0 127 0"/>
<feMorphology radius="2" operator="dilate" in="SourceAlpha" result="effect1_dropShadow"/>
<feOffset/>
<feGaussianBlur stdDeviation="1"/>
<feColorMatrix type="matrix" values="0 0 0 0 0 0 0 0 0 0 0 0 0 0 0 0 0 0 0.1 0"/>
<feBlend mode="normal" in2="BackgroundImageFix" result="effect1_dropShadow"/>
<feBlend mode="normal" in="SourceGraphic" in2="effect1_dropShadow" result="shape"/>
</filter>
<filter id="filter2_d" x="614" y="211" width="32" height="32" filterUnits="userSpaceOnUse" color-interpolation-filters="sRGB">
<feFlood flood-opacity="0" result="BackgroundImageFix"/>
<feColorMatrix in="SourceAlpha" type="matrix" values="0 0 0 0 0 0 0 0 0 0 0 0 0 0 0 0 0 0 127 0"/>
<feMorphology radius="2" operator="dilate" in="SourceAlpha" result="effect1_dropShadow"/>
<feOffset/>
<feGaussianBlur stdDeviation="1"/>
<feColorMatrix type="matrix" values="0 0 0 0 0 0 0 0 0 0 0 0 0 0 0 0 0 0 0.1 0"/>
<feBlend mode="normal" in2="BackgroundImageFix" result="effect1_dropShadow"/>
<feBlend mode="normal" in="SourceGraphic" in2="effect1_dropShadow" result="shape"/>
</filter>
<filter id="filter3_d" x="385" y="211" width="32" height="32" filterUnits="userSpaceOnUse" color-interpolation-filters="sRGB">
<feFlood flood-opacity="0" result="BackgroundImageFix"/>
<feColorMatrix in="SourceAlpha" type="matrix" values="0 0 0 0 0 0 0 0 0 0 0 0 0 0 0 0 0 0 127 0"/>
<feMorphology radius="2" operator="dilate" in="SourceAlpha" result="effect1_dropShadow"/>
<feOffset/>
<feGaussianBlur stdDeviation="1"/>
<feColorMatrix type="matrix" values="0 0 0 0 0 0 0 0 0 0 0 0 0 0 0 0 0 0 0.1 0"/>
<feBlend mode="normal" in2="BackgroundImageFix" result="effect1_dropShadow"/>
<feBlend mode="normal" in="SourceGraphic" in2="effect1_dropShadow" result="shape"/>
</filter>
<filter id="filter4_d" x="614" y="300" width="32" height="32" filterUnits="userSpaceOnUse" color-interpolation-filters="sRGB">
<feFlood flood-opacity="0" result="BackgroundImageFix"/>
<feColorMatrix in="SourceAlpha" type="matrix" values="0 0 0 0 0 0 0 0 0 0 0 0 0 0 0 0 0 0 127 0"/>
<feMorphology radius="2" operator="dilate" in="SourceAlpha" result="effect1_dropShadow"/>
<feOffset/>
<feGaussianBlur stdDeviation="1"/>
<feColorMatrix type="matrix" values="0 0 0 0 0 0 0 0 0 0 0 0 0 0 0 0 0 0 0.1 0"/>
<feBlend mode="normal" in2="BackgroundImageFix" result="effect1_dropShadow"/>
<feBlend mode="normal" in="SourceGraphic" in2="effect1_dropShadow" result="shape"/>
</filter>
<filter id="filter5_d" x="457" y="300" width="32" height="32" filterUnits="userSpaceOnUse" color-interpolation-filters="sRGB">
<feFlood flood-opacity="0" result="BackgroundImageFix"/>
<feColorMatrix in="SourceAlpha" type="matrix" values="0 0 0 0 0 0 0 0 0 0 0 0 0 0 0 0 0 0 127 0"/>
<feMorphology radius="2" operator="dilate" in="SourceAlpha" result="effect1_dropShadow"/>
<feOffset/>
<feGaussianBlur stdDeviation="1"/>
<feColorMatrix type="matrix" values="0 0 0 0 0 0 0 0 0 0 0 0 0 0 0 0 0 0 0.1 0"/>
<feBlend mode="normal" in2="BackgroundImageFix" result="effect1_dropShadow"/>
<feBlend mode="normal" in="SourceGraphic" in2="effect1_dropShadow" result="shape"/>
</filter>
<filter id="filter6_d" x="614" y="478" width="32" height="32" filterUnits="userSpaceOnUse" color-interpolation-filters="sRGB">
<feFlood flood-opacity="0" result="BackgroundImageFix"/>
<feColorMatrix in="SourceAlpha" type="matrix" values="0 0 0 0 0 0 0 0 0 0 0 0 0 0 0 0 0 0 127 0"/>
<feMorphology radius="2" operator="dilate" in="SourceAlpha" result="effect1_dropShadow"/>
<feOffset/>
<feGaussianBlur stdDeviation="1"/>
<feColorMatrix type="matrix" values="0 0 0 0 0 0 0 0 0 0 0 0 0 0 0 0 0 0 0.1 0"/>
<feBlend mode="normal" in2="BackgroundImageFix" result="effect1_dropShadow"/>
<feBlend mode="normal" in="SourceGraphic" in2="effect1_dropShadow" result="shape"/>
</filter>
<filter id="filter7_d" x="369" y="478" width="32" height="32" filterUnits="userSpaceOnUse" color-interpolation-filters="sRGB">
<feFlood flood-opacity="0" result="BackgroundImageFix"/>
<feColorMatrix in="SourceAlpha" type="matrix" values="0 0 0 0 0 0 0 0 0 0 0 0 0 0 0 0 0 0 127 0"/>
<feMorphology radius="2" operator="dilate" in="SourceAlpha" result="effect1_dropShadow"/>
<feOffset/>
<feGaussianBlur stdDeviation="1"/>
<feColorMatrix type="matrix" values="0 0 0 0 0 0 0 0 0 0 0 0 0 0 0 0 0 0 0.1 0"/>
<feBlend mode="normal" in2="BackgroundImageFix" result="effect1_dropShadow"/>
<feBlend mode="normal" in="SourceGraphic" in2="effect1_dropShadow" result="shape"/>
</filter>
<filter id="filter8_d" x="594" y="389" width="32" height="32" filterUnits="userSpaceOnUse" color-interpolation-filters="sRGB">
<feFlood flood-opacity="0" result="BackgroundImageFix"/>
<feColorMatrix in="SourceAlpha" type="matrix" values="0 0 0 0 0 0 0 0 0 0 0 0 0 0 0 0 0 0 127 0"/>
<feMorphology radius="2" operator="dilate" in="SourceAlpha" result="effect1_dropShadow"/>
<feOffset/>
<feGaussianBlur stdDeviation="1"/>
<feColorMatrix type="matrix" values="0 0 0 0 0 0 0 0 0 0 0 0 0 0 0 0 0 0 0.1 0"/>
<feBlend mode="normal" in2="BackgroundImageFix" result="effect1_dropShadow"/>
<feBlend mode="normal" in="SourceGraphic" in2="effect1_dropShadow" result="shape"/>
</filter>
<filter id="filter9_d" x="395" y="389" width="32" height="32" filterUnits="userSpaceOnUse" color-interpolation-filters="sRGB">
<feFlood flood-opacity="0" result="BackgroundImageFix"/>
<feColorMatrix in="SourceAlpha" type="matrix" values="0 0 0 0 0 0 0 0 0 0 0 0 0 0 0 0 0 0 127 0"/>
<feMorphology radius="2" operator="dilate" in="SourceAlpha" result="effect1_dropShadow"/>
<feOffset/>
<feGaussianBlur stdDeviation="1"/>
<feColorMatrix type="matrix" values="0 0 0 0 0 0 0 0 0 0 0 0 0 0 0 0 0 0 0.1 0"/>
<feBlend mode="normal" in2="BackgroundImageFix" result="effect1_dropShadow"/>
<feBlend mode="normal" in="SourceGraphic" in2="effect1_dropShadow" result="shape"/>
</filter>
<filter id="filter10_d" x="773" y="312" width="16" height="36" filterUnits="userSpaceOnUse" color-interpolation-filters="sRGB">
<feFlood flood-opacity="0" result="BackgroundImageFix"/>
<feColorMatrix in="SourceAlpha" type="matrix" values="0 0 0 0 0 0 0 0 0 0 0 0 0 0 0 0 0 0 127 0"/>
<feMorphology radius="2" operator="dilate" in="SourceAlpha" result="effect1_dropShadow"/>
<feOffset/>
<feGaussianBlur stdDeviation="1"/>
<feColorMatrix type="matrix" values="0 0 0 0 0 0 0 0 0 0 0 0 0 0 0 0 0 0 0.1 0"/>
<feBlend mode="normal" in2="BackgroundImageFix" result="effect1_dropShadow"/>
<feBlend mode="normal" in="SourceGraphic" in2="effect1_dropShadow" result="shape"/>
</filter>
<linearGradient id="paint0_linear" x1="109" y1="138" x2="317" y2="138" gradientUnits="userSpaceOnUse">
<stop stop-color="#D9400E"/>
<stop offset="1" stop-color="#FEBC5B"/>
</linearGradient>
<linearGradient id="paint1_linear" x1="113" y1="138.132" x2="313" y2="138.132" gradientUnits="userSpaceOnUse">
<stop stop-color="#D83D0C"/>
<stop offset="1" stop-color="#FFBE5B"/>
</linearGradient>
<linearGradient id="paint2_linear" x1="113" y1="227.132" x2="313" y2="227.132" gradientUnits="userSpaceOnUse">
<stop stop-color="#1A549E"/>
<stop offset="1" stop-color="#6916A2"/>
</linearGradient>
<linearGradient id="paint3_linear" x1="113" y1="316.132" x2="313" y2="316.132" gradientUnits="userSpaceOnUse">
<stop stop-color="#1A549E"/>
<stop offset="1" stop-color="#4AAEE7"/>
</linearGradient>
<linearGradient id="paint4_linear" x1="113" y1="494.132" x2="313" y2="494.132" gradientUnits="userSpaceOnUse">
<stop stop-color="#8ED583"/>
<stop offset="1" stop-color="#61E89F"/>
</linearGradient>
<linearGradient id="paint5_linear" x1="752" y1="218.662" x2="1072" y2="218.662" gradientUnits="userSpaceOnUse">
<stop stop-color="white"/>
<stop offset="1" stop-color="#E9762F"/>
</linearGradient>
<linearGradient id="paint6_linear" x1="912" y1="118" x2="912" y2="318" gradientUnits="userSpaceOnUse">
<stop stop-opacity="0"/>
<stop offset="1"/>
</linearGradient>
<linearGradient id="paint7_linear" x1="752" y1="330" x2="1072" y2="330" gradientUnits="userSpaceOnUse">
<stop stop-color="#EB3925"/>
<stop offset="0.078125" stop-color="#F4913A"/>
<stop offset="0.15625" stop-color="#FFFD54"/>
<stop offset="0.234375" stop-color="#B6FD50"/>
<stop offset="0.3125" stop-color="#81FB4D"/>
<stop offset="0.390625" stop-color="#75FB9B"/>
<stop offset="0.46875" stop-color="#75FBF8"/>
<stop offset="0.552083" stop-color="#438FF9"/>
<stop offset="0.630208" stop-color="#0811F5"/>
<stop offset="0.713542" stop-color="#7219F6"/>
<stop offset="0.791667" stop-color="#E431F6"/>
<stop offset="0.875" stop-color="#EA33A4"/>
<stop offset="0.958333" stop-color="#EA3330"/>
</linearGradient>
</defs>
</svg>
